<?xml version="1.0" encoding="UTF-8"?><svg id="Layer_2" xmlns="http://www.w3.org/2000/svg" viewBox="0 0 1092.54 1080"><defs><style>.cls-1{fill:#0331a7;}.cls-2{fill:#002fa6;}.cls-3{fill:#0230a7;}.cls-4{fill:#0130a7;}.cls-5{fill:#012fa6;}.cls-6{fill:#012fa7;}.cls-7{fill:#6883ca;}.cls-8{fill:#eaeef7;}.cls-9{fill:#e6ebf6;}.cls-10{fill:#f4f6fb;}.cls-11{fill:#f5ac37;}.cls-12{fill:#f5f6fb;}.cls-13{fill:#e3e8f5;}.cls-14{fill:#f1f3fa;}.cls-15{fill:#f1f4fa;}.cls-16{fill:#fefefe;}.cls-17{fill:#fefefd;}.cls-18{fill:#e5eaf5;}.cls-19{fill:#3257b7;}.cls-20{fill:#d8dff1;}.cls-21{fill:#dde3f3;}.cls-22{fill:#dce3f2;}.cls-23{fill:#d1d9ef;}.cls-24{fill:#e1e6f4;}.cls-25{fill:#dee4f3;}.cls-26{fill:#1741ae;}.cls-27{fill:#0734a9;}.cls-28{fill:#0634a8;}.cls-29{fill:#1d45af;}.cls-30{fill:#2e53b6;}.cls-31{fill:#839ad4;}.cls-32{fill:#274eb3;}.cls-33{fill:none;stroke:#000;stroke-miterlimit:10;stroke-width:25.07px;}</style></defs><g id="Layer_1-2"><g><g id="Layer_1-3"><path class="cls-11" d="M540,0c298.26,0,540,241.79,540,540s-241.74,540-540,540S0,838.24,0,540,241.79,0,540,0Z"/><path class="cls-17" d="M559.9,578.13h205.19c4.37,0,6.44,0,6.76-5.73,1.68-20.87,1.68-41.87,0-62.77,0-4.06-2.02-5.73-6.42-5.73H357.07c-5.05,0-6.42,1.68-6.42,6.42v60.07q0,7.75,8.09,7.75h201.16Zm189.03-144.44c.58-1.53,.58-3.21,0-4.71-3.43-7.46-7.48-14.58-12.2-21.26-7.1-11.42-15.45-21.94-24.98-31.4-4.5-5.71-9.7-10.84-15.53-15.19-29.21-24.86-63.93-42.45-101.26-51.3-18.83-4.23-38.08-6.25-57.37-6.08h-181.23c-5.05,0-5.73,2.02-5.73,6.42v119.8c0,5.05,0,6.42,6.42,6.42h389.46s3.38-.68,4.06-2.7h-1.63Zm0,214.64c-5.73-.63-11.52-.63-17.25,0H357.41c-5.05,0-6.76,0-6.76,6.76v117.13c0,5.39,0,6.76,6.76,6.76h172.8c8.26,.63,16.52,.05,24.62-1.68,25.08-1.8,49.74-7.24,73.27-16.21,8.55-2.96,16.82-6.83,24.62-11.47h2.36c40.51-21.07,73.41-54.17,94.16-94.8,0,0,2.36-5.1-.29-6.44v-.05Zm-466.1,191.36v-186.63c0-4.4,0-5.05-5.39-5.05h-73.24c-4.06,0-5.73,0-5.73-5.39v-64.13h78.3c4.37,0,6.08,0,6.08-5.73v-63.45c0-4.06,0-5.05-5.39-5.05h-73.24c-4.06,0-5.73,0-5.73-5.39v-59.39c0-3.72,0-4.71,5.39-4.71h72.56c5.05,0,6.42,0,6.42-6.42V246.43c0-5.39,0-6.76,6.76-6.76h253.11c18.37,.73,36.62,2.75,54.68,6.08,37.2,6.88,72.95,20.17,105.63,39.15,21.68,12.76,41.63,28.16,59.39,45.9,13.37,13.88,25.42,28.89,36.11,44.88,10.62,16.21,19.44,33.53,26.37,51.64,.85,4.71,5.37,7.9,10.08,7.1h60.41q7.75,0,8.09,7.44v55.36c0,5.39-2.02,6.76-7.44,6.76h-46.58c-4.71,0-6.08,0-5.73,6.08,1.85,20.56,1.85,41.19,0,61.75,0,5.73,0,6.42,6.44,6.42h53.29c2.36,3.04,0,6.08,0,9.14,.34,3.91,.34,7.87,0,11.79v40.85c0,5.73-1.68,7.44-6.76,7.44h-63.79c-4.45-.85-8.77,1.99-9.79,6.42-15.19,39.49-39.49,74.89-70.88,103.28-11.47,10.33-23.52,20.05-36.11,29.01-13.51,7.78-26.66,15.87-40.51,22.28-25.49,11.47-52.22,19.93-79.66,25.3-26.05,4.67-52.46,6.78-78.98,6.42h-234.23v-.34l.1-.07Z"/></g><g><g><circle class="cls-16" cx="820.03" cy="745.12" r="259.97"/><g><path class="cls-2" d="M734.59,860.64c.77,0,1.74,.19,2.51,.19,3.28,1.54,6.94-.39,10.22,1.16,1.35,0,2.7,.19,3.86,.19,4.82,1.54,9.84-.39,14.66,1.16,32.01,2.7,63.84,1.54,95.66-1.54,3.47-1.35,7.14,.19,10.41-.96,.77,0,1.54-.19,2.31-.19,.77-.77,1.93-1.35,3.09-1.54,3.09-.39,6.17-.19,9.06-1.35,50.72-5.59,100.48-15.04,149.66-28.35,3.66-.96,7.52-.19,11.19-1.54,3.86-.96,7.71-1.74,11.76-2.7-23.53,81.39-114.36,178.59-252.45,172.41-125.94-5.59-228.54-106.46-238.76-234.9-10.03-125.16,77.14-240.3,202.31-265.56,128.44-25.84,232.78,49.18,271.54,127.48-17.74,1.16-35.49,1.54-53.23,3.28-93.54,9.06-184.95,26.42-271.16,65.76-23.91,10.8-46.86,23.14-67.69,39.15-13.69,10.61-26.81,21.99-33.75,38.76-.58,4.82-1.93,9.64-2.31,14.66-1.93,23.14,10.8,37.03,29.12,47.64,6.75,3.86,14.27,5.98,20.44,10.99,20.44,8.1,42.04,11.96,63.64,14.46,2.7,1.35,5.4,0,7.91,1.35Z"/><path class="cls-2" d="M876.34,842.32c40.69-2.89,80.61-10.22,120.15-19.48,21.02-4.82,41.85-10.61,62.49-17.16,1.93-.58,4.24-2.12,5.98-.19,1.35,1.54-.58,3.47-.58,5.4-.58,7.33-4.82,11.19-11.96,12.54-3.28,.58-6.36,1.93-9.45,3.09-3.66,3.66-8.68,3.86-13.11,5.01-46.09,12.15-92.96,20.44-140.4,26.42-.96,.19-1.93,0-2.89,0-3.09,.58-6.17,.39-9.26,1.16-1.54,.19-3.09-.39-4.63-.39-3.47,.19-6.94-.58-10.22,.58-1.74,.19-3.47,.19-5.21,.39-4.82,1.54-9.84-.39-14.66,1.16h-40.89c6.75-8.1,12.34-16.39,24.88-14.66,5.21,.77,10.8-.58,16.2-.96,5.21-1.74,10.8,.39,16.2-1.16,1.74-.19,3.47-.19,5.21-.39,4.05-1.74,8.29,.19,12.15-1.35Z"/><path class="cls-2" d="M866.89,840.59c-1.35,.19-2.51,.19-3.86,.39-5.21,1.74-10.8-.39-16.01,1.16-1.74,0-3.47,.19-5.4,.19-6.56,1.35-12.92,.39-19.48,.58-1.35,0-2.12-.77-2.31-2.12,4.24-4.05,8.68-7.91,12.92-12.15,1.93-1.93,4.24-1.93,6.56-1.93,66.15-1.74,130.95-12.92,194.01-33.17,2.89-.96,5.4-.96,8.1,.39,5.01,2.51,10.22,4.82,17.36,8.1-60.36,19.48-120.34,30.86-181.48,37.61-3.28,1.35-6.94-.39-10.41,.96Z"/><path class="cls-2" d="M839.89,821.69c6.56-8.49,13.89-13.69,25.84-14.27,46.48-2.31,92.19-9.84,136.54-23.72,11.38-3.47,19.48-.39,28.35,5.21-24.88,14.46-159.88,37.61-190.74,32.79Z"/><path class="cls-2" d="M617.53,775.02q8.87-15.43,27.19-16.78c8.29-.58,16.59-1.35,25.84-2.12-6.56,12.34-8.87,24.49-6.17,37.61,1.16,5.4-5.98,2.89-8.1,5.59-10.99,5.98-22.95,7.91-35.1,10.03-1.93,.39-3.47-.77-4.82-2.51-4.63-6.56-4.05-24.69,1.16-31.82Z"/><path class="cls-2" d="M660.73,801.05c3.86-.96,6.17-.19,8.29,3.86,7.91,14.46,21.6,21.99,37.61,28.74-13.89,5.01-24.49,17.16-40.31,9.84-17.55-3.47-32.01-12.34-43.78-25.84-3.86-4.44-2.7-7.71,3.47-9.06,11.76-2.51,22.95-6.75,34.71-7.52Z"/><path class="cls-5" d="M978.75,635.19c-3.28,11.38-11.57,13.69-22.56,14.66-31.63,2.89-63.26,8.1-93.92,16.2-10.99,2.89-17.94,.19-24.3-9.26,44.16-10.8,88.71-18.51,133.65-23.34,2.51,0,5.4-2.12,7.14,1.74Z"/><path class="cls-2" d="M745.78,814.17c-10.8,5.4-21.6,10.8-32.4,16.01-.96,.39-2.51,.58-3.47,.19-14.85-5.59-28.54-12.73-37.22-27-2.31-3.86-1.35-5.01,2.7-6.17,11.76-2.89,23.53-5.98,35.1-9.26,4.63-1.35,8.1-1.16,9.84,4.05,6.56,9.64,16.78,15.04,25.46,22.18Z"/><path class="cls-6" d="M713.76,701.54c32.79-17.36,67.11-29.31,102.21-38.96,.96-.19,1.93-.39,2.7-.77,10.61-5.01,19.09-2.7,25.26,7.52-1.16,2.31-3.86,1.74-5.98,2.31-32.79,8.49-64.99,18.51-95.85,32.21-1.93,.96-3.86,1.74-6.17,1.35-7.33-1.35-14.85-2.51-22.18-3.66Z"/><path class="cls-6" d="M718.2,831.72c10.03-4.63,20.06-9.26,30.28-13.89,1.54-.77,2.89-.96,4.82-.39,22.95,7.71,46.86,9.45,70.97,9.64,.77,0,1.74,.19,3.28,.39-7.91,10.03-15.24,17.16-29.51,16.01-24.11-1.93-48.41-2.31-72.13-8.1-2.51-.58-5.01-1.35-7.52-1.93,0-.77,0-1.35-.19-1.74Z"/><path class="cls-6" d="M731.89,708.29c-13.11,6.94-25.07,13.31-35.87,21.41-6.94,5.21-14.27,10.22-19.09,17.74-2.12,3.28-4.82,4.63-8.68,5.01-11.76,.77-23.53,2.12-35.29,3.09-.77-2.7,1.16-3.47,2.12-4.63,19.86-19.67,43.78-33.36,68.27-46.09,1.74-.96,3.47-1.16,5.4-.77,7.33,1.54,14.46,2.7,23.14,4.24Z"/><path class="cls-6" d="M735.94,857.94c-16.59-2.89-33.36-4.82-49.76-10.03,11.57-3.28,19.86-14.85,34.91-10.22,25.84,7.91,52.65,8.87,79.65,9.06h8.68c-5.21,5.4-9.26,9.84-13.31,14.27-9.06,.96-18.13,.96-27.19,0-2.12-.19-4.44-.19-6.56-.39-3.86-1.35-8.1,.39-11.96-1.16-1.35-.19-2.7-.19-3.86-.39-3.47-1.35-7.33,.39-10.61-1.16Z"/><path class="cls-2" d="M722.44,752.07c-5.59,9.45-7.91,18.51-6.36,28.16,.39,2.51-.96,3.09-3.09,3.66-13.5,3.47-27,6.94-40.5,10.61-3.09,.77-3.86-.58-4.24-2.89-2.51-12.15-.19-23.53,6.56-33.94,.96-1.54,2.31-2.31,4.05-2.31,13.69-1.35,27.96-3.28,43.59-3.28Z"/><path class="cls-6" d="M728.42,744.93c-1.74,.96-2.7,3.09-5.4,3.09-14.08,.77-28.35,1.93-43.01,2.89,2.7-8.1,9.26-12.34,15.04-16.2,11.57-8.1,23.72-15.43,36.45-21.6,5.01-2.51,9.84-3.86,15.62-2.51,7.14,1.74,14.27,2.51,23.34,4.05-5.98,3.66-10.41,6.36-14.66,9.06-8.87,7.14-17.74,14.66-27.39,21.21Z"/><path class="cls-2" d="M794.57,756.5c-4.63-1.74-9.26-3.28-15.04-5.4,9.84-9.64,21.02-16.39,33.17-21.79,.96-.39,2.7,.39,3.86,.96,2.31,1.16,4.63,2.51,6.75,3.86,17.16,10.61,19.09,14.66,16.39,34.33-.77,5.01-7.14,7.91-11.57,5.21-4.05-2.51-8.1-4.82-12.15-7.14-7.52-2.31-15.04-5.21-21.41-10.03Z"/><path class="cls-6" d="M862.07,683.79c-17.16,5.01-32.21,9.45-47.44,14.08-6.94,2.12-14.46,3.86-20.64,7.52-15.43,9.45-30.47,4.44-47.64,.77,3.86-1.74,6.17-2.7,8.49-3.66,28.74-11.76,58.63-20.44,88.71-28.35,9.26-2.51,11.38,5.98,18.51,9.64Z"/><path class="cls-6" d="M969.3,652.17c-2.51,4.82-4.44,8.29-6.17,11.96-1.16,2.7-3.09,3.66-5.98,3.86-28.93,2.7-57.66,7.14-85.82,14.27-9.26,2.31-10.99-6.56-16.59-9.84,37.22-10.22,75.02-16.01,114.56-20.25Z"/><path class="cls-2" d="M1064.76,703.27c-15.81,9.84-28.54,22.56-39.34,37.03-2.7,3.47-9.45,1.93-11.38-2.51-2.31-5.4-4.24-11.19-6.56-16.59-.96-2.31,0-4.05,.96-5.98,12.92-23.14,16.97-24.88,42.62-17.55,4.63,1.35,9.26,2.51,13.69,5.59Z"/><path class="cls-6" d="M721.67,789.29c-.77-2.7,.39-3.66,3.09-4.24,13.69-2.7,27.58-4.63,41.66-5.21,1.93,0,3.86,0,4.82,2.12,4.05,7.91,10.99,12.73,20.44,18.13-16.59,2.12-29.51,9.84-44.16,12.15-11.76-1.93-23.34-12.15-25.84-22.95Z"/><path class="cls-6" d="M758.89,725.07c16.39-12.54,32.4-7.14,48.41,.96,.19,2.51-2.31,2.51-3.66,3.28-7.52,4.24-15.43,8.1-21.02,14.27-5.59,6.17-11.38,6.94-18.71,5.4-9.64-1.74-19.29-1.74-29.12-1.16-4.05-.96-4.82-2.12-2.12-4.82,7.52-7.33,15.43-14.66,26.23-17.94Z"/><path class="cls-4" d="M978.36,666.44c-1.35,0-2.7,.19-3.86,.19-2.89,.58-5.79,1.74-8.29-.58,3.86-11.96,12.15-15.81,24.49-16.01,19.48-.39,38.76-2.12,58.44-2.12,3.66,0,5.98,1.16,6.56,4.82,.77,4.05,6.17,8.29,.19,12.54-6.94,.77-13.69,2.89-20.83,1.74-9.26-1.74-18.51-1.54-27.58-.19-4.24,.58-8.49,1.16-12.73-.58-5.59-.39-10.99-.96-16.39,.19Z"/><path class="cls-6" d="M784.35,713.11c25.46-10.99,51.3-18.13,77.14-24.88,3.86-.96,5.79,1.35,7.52,3.86,1.93,2.7-1.54,3.28-2.51,4.82-5.79,8.1-13.69,12.54-23.14,15.04-3.28,.77-6.17,2.12-9.26,3.47-23.53,9.26-24.88,9.26-49.76-2.31Z"/><path class="cls-6" d="M990.51,668.17c1.35,0,2.51-.19,3.86-.19,1.93-1.54,4.05-1.35,6.36-1.35,13.31-.77,26.61-.77,40.11,0,1.74,0,3.66,0,5.01,1.35,3.28,1.16,1.16,2.31-.19,3.09-6.75,4.82-13.31,9.84-19.29,15.62-1.93,1.93-4.05,1.74-6.56,1.54-12.92-.96-26.04-1.93-39.15-1.74-7.33,0-12.34-5.59-18.51-8.1-2.31-.96,.39-7.33,3.86-8.1,3.28-.77,6.56-.96,9.84-1.35,4.82-1.16,9.84,.77,14.66-.77Z"/><path class="cls-6" d="M748.29,751.29c5.21,.58,12.34,1.35,19.48,1.93,3.47,.19,4.63,1.16,2.7,4.63-2.51,4.44-3.66,9.45-2.31,14.46,.96,3.66-.96,3.86-3.66,4.05-13.5,.19-27,2.31-40.11,5.21-3.86,.77-5.01-.19-5.4-3.86-.58-8.29,1.74-15.81,5.98-22.95,1.35-2.31,3.28-3.28,5.79-3.28,5.21,0,10.41-.19,17.55-.19Z"/><path class="cls-4" d="M757.16,814.55c13.89-5.98,26.81-10.03,40.31-11.38,4.44-.39,9.26,1.54,13.89,2.51,11.38,2.51,22.95,2.51,34.91,3.09-7.14,9.84-14.46,15.81-27.77,14.46-19.86-1.93-40.11-2.31-61.33-8.68Z"/><path class="cls-6" d="M1052.42,644.84c-13.69,0-25.84-.39-37.8,0-12.15,.39-24.11,1.35-36.26,2.12,1.16-11.38,4.05-14.66,15.24-15.43,14.27-.96,28.54-1.16,42.62-2.31,7.14-.58,11.19,1.54,13.11,8.29,.39,1.93,1.35,3.47,3.09,7.33Z"/><path class="cls-6" d="M813.09,768.07c4.44,2.89,8.87,5.59,13.11,8.49,6.56,4.24-.96,7.14-1.16,10.61-.39,4.44-3.47,1.35-5.21,.58-13.69-6.17-27.96-10.99-43.01-11.57-3.86-.19-5.01-1.93-5.21-5.21,0-2.12-.19-4.24,.19-6.36,1.54-8.87,4.24-10.61,13.11-8.1,1.74,.58,3.66,.96,5.59,1.35,8.1,1.54,16.2,4.05,22.56,10.22Z"/><path class="cls-4" d="M1069.59,705.97c1.93,5.59,1.74,11.57,2.51,17.55,.39,2.51-.58,3.86-2.89,5.01-11.57,5.4-21.41,13.11-30.47,22.18-2.31,2.31-4.44,2.31-5.59-.19-1.35-2.89-8.1-2.89-4.63-7.71,10.8-14.66,23.14-27.58,39.34-36.64,.58-.19,1.16-.19,1.74-.19Z"/><path class="cls-4" d="M1020.21,778.68c14.66-5.21,27.77-11.19,39.92-19.29,.39-.19,.77-.58,1.16-.77,3.47-.96,7.33-3.47,10.22-1.74s.39,6.17,.58,9.26c.58,7.14-2.89,10.8-9.45,12.54-4.05,1.16-8.29,2.51-11.96,4.82-11.19,6.75-20.44,1.93-30.47-4.82Z"/><path class="cls-3" d="M1029.09,689.39c8.29-8.1,16.39-14.08,25.07-19.29,3.09-1.74,7.14-2.31,8.49,2.7,2.31,8.68,4.44,17.36,6.94,27.39-13.5-5.79-26.23-8.68-40.5-10.8Z"/><path class="cls-10" d="M873.06,857.94c1.35-.19,2.51-.19,3.86-.39,2.89-1.35,6.17,.19,8.87-1.16,53.04-6.56,105.49-16.39,156.99-30.09,1.16,1.74,2.89,1.35,4.63,1.54-23.14,7.91-47.06,12.92-70.97,17.74-29.89,5.98-59.79,11.19-90.06,13.89-2.89,1.16-6.17-.39-9.06,.96-.96,0-1.93,.19-2.89,.19-.58-.39-.96-.96-1.54-1.35-.39-.39-.58-.58-.39-.96,.19-.19,.39-.39,.58-.39Z"/><path class="cls-1" d="M827.16,800.28c-18.9-3.28-40.5,2.51-51.69-18.9,13.5-3.28,48.02,9.26,51.69,18.9Z"/><path class="cls-12" d="M660.73,801.05c-10.61,4.05-21.79,6.36-32.79,9.06-7.71,1.93-7.91,2.12-2.31,8.49,9.45,10.61,21.6,16.78,34.52,22.18,2.12,.96,4.24,1.93,6.36,2.89-1.35,.19-2.51,.39-3.28,1.54-15.24-4.63-28.93-11.96-39.92-23.72-13.11-14.27-15.81-33.17-7.33-49.37,.19,1.16,.19,2.51,1.54,3.09-2.89,9.06-3.86,17.94-1.16,27.39,1.16,4.24,2.89,6.36,7.91,4.82,10.41-3.09,21.21-5.21,31.82-7.91,1.16,1.54,3.09,1.16,4.63,1.54Z"/><path class="cls-1" d="M1037.19,758.04c8.68-10.22,19.09-18.32,30.86-24.88,3.47-1.93,4.82-1.93,5.01,2.7,.19,8.1-5.4,15.81-15.43,19.67-6.36,2.31-12.73,5.21-18.71,8.68-3.86-1.16-2.31-3.86-1.74-6.17Z"/><path class="cls-1" d="M818.29,726.22c11.76-5.4,22.56-9.84,35.49-14.08-6.17,10.03-10.03,19.48-12.54,29.7-7.71-5.4-14.85-10.22-22.95-15.62Z"/><path class="cls-3" d="M982.61,690.54c13.69,0,25.46,.19,37.61,1.74-4.82,6.94-9.45,13.31-14.08,19.86-1.35,2.12-2.51,1.74-3.66-.19-5.21-7.52-11.38-14.27-19.86-21.41Z"/><path class="cls-28" d="M1069.39,780.22c.58,1.16,.77,1.35,.77,1.54-.96,5.98,.39,15.43-4.44,16.97-7.33,2.31-13.69-5.59-22.37-8.29,9.84-3.86,17.94-6.94,26.04-10.22Z"/><path class="cls-26" d="M1017.32,775.02c0-8.68-1.54-17.16,4.82-23.91,2.31-2.31,3.66-3.47,6.17-.96,2.12,2.12,6.36,4.05,3.47,7.91-4.63,5.98-9.64,11.38-14.46,16.97Z"/><path class="cls-27" d="M849.34,804.52c-6.36-3.86-12.92-7.14-19.09-11.38-4.05-2.7-1.35-6.36,.39-9.26,2.12-3.86,4.05-.77,6.36,.19,8.29,4.05,9.06,12.92,12.34,20.44Z"/><path class="cls-8" d="M758.89,725.07c-8.49,5.98-17.55,11.19-24.69,18.51-1.54,1.54-4.44,3.47,.39,4.24-4.63,3.86-3.86-2.7-6.17-3.09,7.52-9.26,16.97-16.01,27.39-21.41,.77,1.54,1.93,1.74,3.09,1.74Z"/><path class="cls-14" d="M1045.86,667.98h-4.24c-13.89-.96-27.58-.96-41.46,0-1.93,0-3.86,0-5.79,.19v-1.35c-.58-.39-.58-.58-.58-.77,.19-.19,.39-.39,.58-.39,4.05-.19,8.1-.19,12.34-.39,9.45-.77,18.9-.77,28.35,0h20.83c-2.7,3.28-7.52-.58-10.03,2.7Z"/><path class="cls-9" d="M721.67,789.29c5.4,11.38,15.24,17.55,25.84,22.76-.58,.58-1.16,1.35-1.93,1.93-10.99-4.44-20.64-10.22-25.46-21.79,1.35-.58,1.54-1.74,1.54-2.89Z"/><path class="cls-13" d="M813.09,768.07c-7.52-3.47-15.24-6.75-22.76-10.22,1.54-.19,3.47,.19,4.44-1.54,7.71,2.12,14.85,5.4,21.41,10.03-1.35,.39-2.51,.58-3.09,1.74Z"/><path class="cls-19" d="M945.39,672.8c3.66-.58,6.75-1.16,9.64-1.35,1.35-.19,3.86-1.16,3.66,1.54-.19,2.12-1.16,4.63-4.05,3.47-2.7-1.16-6.17-.19-9.26-3.66Z"/><path class="cls-32" d="M869.98,686.69c3.86-2.12,8.1-2.31,13.11-3.47-8.49,8.29-9.06,8.49-13.11,3.47Z"/><path class="cls-13" d="M768.92,860.84h27.19c-9.26,2.51-18.13,2.12-27.19,0Z"/><path class="cls-18" d="M819.64,840.78c4.05,3.66,8.87,.77,13.5,1.35,2.7,.39,5.59,.19,8.49,.19-7.14,2.89-14.66,.96-21.99,1.16-2.31,0-.96-1.74,0-2.7Z"/><path class="cls-30" d="M839.7,775.21c1.54,1.93,1.74,4.24,1.93,6.94-2.89-.58-5.01-1.54-5.4-3.86-.19-1.54,1.93-2.51,3.47-3.09Z"/><path class="cls-15" d="M821.57,802.21c3.66,1.16,7.52,1.74,11.57,2.12-4.82,.19-9.64,2.12-14.27-.58,.58-1.16,2.12-.58,2.7-1.54Z"/><path class="cls-18" d="M847.03,842.13c5.21-1.35,10.61-1.35,16.01-1.16-5.21,2.51-10.61,.96-16.01,1.16Z"/><path class="cls-29" d="M1017.51,750.91c-1.35-2.12-2.7-4.05-.39-5.59,.39-.39,2.12,.19,2.51,.77,1.93,2.51-1.35,3.28-2.12,4.82Z"/><path class="cls-25" d="M994.37,665.28v1.35c-5.4,0-10.61-.19-16.01-.19,5.21-1.54,10.61-1.35,16.01-1.16Z"/><path class="cls-18" d="M859.18,843.87c-5.21,1.54-10.8,1.35-16.2,1.16,5.4-2.7,10.8-1.16,16.2-1.16Z"/><path class="cls-13" d="M766.03,863.54c-5.01,.19-9.84,.39-14.66-1.16,4.82,0,9.84-1.54,14.66,1.16Z"/><path class="cls-25" d="M990.51,668.17c-4.82,1.35-9.64,1.35-14.66,1.16,4.82-2.51,9.84-1.16,14.66-1.16Z"/><path class="cls-25" d="M842.79,860.64c4.82-1.35,9.64-1.35,14.66-1.16-4.82,2.51-9.84,1.16-14.66,1.16Z"/><path class="cls-20" d="M876.34,842.32c-3.86,1.54-7.71,1.35-11.76,1.16,3.66-2.51,7.71-1.16,11.76-1.16Z"/><path class="cls-13" d="M750.21,859.49c4.05-.19,8.1-.39,11.96,1.16-4.05,0-8.1,1.35-11.96-1.16Z"/><path class="cls-20" d="M866.89,840.59c3.47-1.35,6.94-1.35,10.41-1.16-3.28,2.51-6.94,1.35-10.41,1.16Z"/><path class="cls-24" d="M735.94,857.94c3.47-.19,6.94-.19,10.41,1.16-3.47,.19-7.14,1.35-10.41-1.16Z"/><path class="cls-25" d="M873.06,857.94v1.35c-3.47,0-6.94-.19-10.41-.19,3.28-1.35,6.94-1.35,10.41-1.16Z"/><path class="cls-24" d="M747.51,861.99c-3.47,.19-6.94,.19-10.22-1.16,3.28,0,6.94-1.16,10.22,1.16Z"/><path class="cls-31" d="M978.75,635.19c-1.93-2.89-5.01-.39-7.33-1.54,2.12-1.54,4.44-1.54,6.75-1.16,2.12,.19,1.93,1.54,.58,2.7Z"/><path class="cls-25" d="M872.1,861.03c-3.47,1.54-6.94,1.35-10.41,.96,3.28-2.31,6.94-1.16,10.41-.96Z"/><path class="cls-7" d="M1037.19,758.04c.77,1.93-.96,4.63,1.74,6.17-1.16,1.54-2.51,2.7-2.89-.19-.39-1.93-.39-4.24,1.16-5.98Z"/><path class="cls-25" d="M966.02,666.05c2.7,.19,5.59,.39,8.29,.58-2.89,1.74-5.79,2.89-8.29-.58Z"/><path class="cls-23" d="M821.57,802.21c-.58,1.16-1.74,1.35-2.89,1.54-.96-.39-2.31,.39-3.09-1.54h5.98Z"/><path class="cls-24" d="M734.59,860.64c-2.7,.19-5.21,.39-7.71-1.16,2.7-.19,5.4-.96,7.71,1.16Z"/><path class="cls-22" d="M877.31,860.64c2.89-2.31,5.98-1.16,9.06-.96-2.89,1.16-5.98,1.16-9.06,.96Z"/><path class="cls-22" d="M885.99,856.59c-2.7,2.31-5.98,1.16-8.87,1.16,2.7-1.16,5.79-1.35,8.87-1.16Z"/><path class="cls-21" d="M1035.06,664.89h-28.35c9.45-1.16,18.9-1.16,28.35,0Z"/><path class="cls-21" d="M1000.16,667.98c7.91-2.7,16.2-1.16,24.3-1.16,5.79,0,11.57-1.54,17.16,1.16h-41.46Z"/></g></g><circle class="cls-33" cx="820.03" cy="745.12" r="259.97"/></g></g></g></svg>