<svg width="1185" height="1182" viewBox="0 0 1185 1182" fill="none" xmlns="http://www.w3.org/2000/svg">
<g clip-path="url(#clip0_694_1600)">
<path d="M580 1160C901.419 1160 1160 901.419 1160 580C1160 258.581 901.419 0 580 0C258.581 0 0 258.581 0 580C0 901.419 258.581 1160 580 1160Z" fill="#2775CA"/>
<path d="M739.5 671.83C739.5 587.249 688.75 558.249 587.25 546.167C514.75 536.499 500.25 517.167 500.25 483.33C500.25 449.493 524.418 427.749 572.75 427.749C616.25 427.749 640.418 442.249 652.5 478.499C654.918 485.749 662.169 490.58 669.419 490.58H708.081C717.75 490.58 725 483.33 725 473.667V471.249C715.331 418.08 671.831 376.999 616.25 372.167V314.167C616.25 304.499 609 297.249 596.919 294.83H560.668C551 294.83 543.75 302.08 541.331 314.167V369.749C468.831 379.417 422.918 427.749 422.918 488.167C422.918 567.917 471.25 599.33 572.75 611.417C640.418 623.499 662.169 637.999 662.169 676.667C662.169 715.336 628.331 741.917 582.418 741.917C519.581 741.917 497.831 715.33 490.581 679.08C488.168 669.417 480.918 664.58 473.668 664.58H432.581C422.918 664.58 415.668 671.83 415.668 681.499V683.917C425.331 744.33 464 787.83 543.75 799.917V857.917C543.75 867.58 551 874.83 563.081 877.249H599.331C609 877.249 616.25 869.999 618.669 857.917V799.917C691.169 787.83 739.5 737.08 739.5 671.83Z" fill="white"/>
<path d="M456.75 925.583C268.25 857.92 171.582 647.67 241.669 461.583C277.919 360.083 357.669 282.751 456.75 246.501C466.419 241.67 471.25 234.42 471.25 222.333V188.501C471.25 178.833 466.419 171.583 456.75 169.17C454.332 169.17 449.5 169.17 447.082 171.583C217.5 244.083 91.8315 488.17 164.332 717.751C207.832 853.083 311.75 957.001 447.082 1000.5C456.75 1005.33 466.419 1000.5 468.832 990.833C471.25 988.42 471.25 986.001 471.25 981.17V947.333C471.25 940.083 464 930.42 456.75 925.583ZM712.919 171.583C703.25 166.751 693.582 171.583 691.169 181.251C688.75 183.67 688.75 186.083 688.75 190.92V224.751C688.75 234.42 696 244.083 703.25 248.92C891.75 316.583 988.419 526.833 918.332 712.92C882.082 814.42 802.332 891.751 703.25 928.001C693.582 932.833 688.75 940.083 688.75 952.17V986.001C688.75 995.67 693.582 1002.92 703.25 1005.33C705.669 1005.33 710.5 1005.33 712.919 1002.92C942.5 930.42 1068.17 686.333 995.669 456.751C952.169 319.001 845.832 215.083 712.919 171.583Z" fill="white"/>
<path d="M872.501 1167.24C1036.94 1167.24 1170.24 1033.94 1170.24 869.501C1170.24 705.062 1036.94 571.758 872.501 571.758C708.062 571.758 574.758 705.062 574.758 869.501C574.758 1033.94 708.062 1167.24 872.501 1167.24Z" fill="#002FA7" stroke="black" stroke-width="29.5139"/>
<mask id="mask0_694_1600" style="mask-type:alpha" maskUnits="userSpaceOnUse" x="529" y="557" width="626" height="626">
<path d="M841.743 1167.49C1006.18 1167.49 1139.49 1034.18 1139.49 869.743C1139.49 705.304 1006.18 572 841.743 572C677.304 572 544 705.304 544 869.743C544 1034.18 677.304 1167.49 841.743 1167.49Z" fill="#002FA7" stroke="black" stroke-width="29.5139"/>
</mask>
<g mask="url(#mask0_694_1600)">
<path d="M1007.35 991.116L1000.61 992.215H1000.11C999.613 992.347 999.115 992.347 998.646 992.479L996.887 992.713C908.518 1007.19 833.751 1009.07 768.482 998.576C750.893 995.645 725.053 990.837 702.964 981.339C676.845 970.126 661.997 954.956 658.875 936.063C650.975 890.01 719.234 853.073 741.762 840.952C801.417 808.706 874.953 785.415 966.444 769.922C1057.93 754.43 1135.05 752.084 1202 762.946C1245.64 770.054 1304.6 784.096 1311.59 825.43C1318.58 866.763 1267.62 899.449 1228.71 920.541C1170.5 952.01 1099.4 974.773 1011.13 990.324L1009.39 990.573C1008.91 990.705 1008.39 990.705 1007.92 990.822C1007.45 990.94 1007.47 991.116 1007.35 991.116ZM999.73 988.624H999.965L1006.84 987.378H1006.97C1007.45 987.246 1007.97 987.246 1008.44 987.129L1010.18 986.865C1097.93 971.504 1168.71 948.756 1226.63 917.477C1315.01 869.665 1309.37 836.965 1307.65 826.236C1300.41 782.791 1225.77 770.67 1201.3 766.815C1134.8 756.071 1058.15 758.328 967.044 773.836C875.935 789.343 802.883 812.385 743.477 844.455C655.093 892.252 660.722 924.967 662.466 935.696C669.795 979.126 744.547 991.116 768.981 995.102C833.898 1005.6 908.225 1003.72 996.286 989.239L998.045 988.99C998.543 988.873 999.056 988.873 999.51 988.756L999.73 988.624Z" fill="white"/>
<path d="M1000.83 973.511C999.087 973.775 997.211 974.141 995.217 974.39C991.465 975.006 987.229 975.636 982.597 976.384L982.099 976.515C980.106 976.75 977.995 977.146 975.738 977.38C973.744 977.629 971.619 978.011 969.376 978.26H968.951C965.595 978.758 961.975 979.125 958.34 979.638H957.856L953.224 980.121C951.978 980.253 950.601 980.385 949.369 980.634H949.193C920.861 983.756 893.891 985.632 869.179 985.999C824.24 986.614 788.168 982.496 762.181 973.775C737.366 965.405 721.507 952.653 715.38 935.944C714.317 933.093 713.522 930.149 713.006 927.15C710.807 914.046 714.003 901.074 722.621 888.718C734.552 871.423 757.256 854.948 790.133 839.792C820.913 825.516 859.784 812.691 905.72 801.463C934.8 794.34 958.149 790.104 969.508 788.272C980.868 786.44 1004.69 782.658 1034.16 779.653C1066.61 776.37 1114.06 773.409 1156.11 777.543C1192.18 781.031 1219.14 789.151 1236.14 801.757C1248 810.551 1255.19 821.603 1257.35 834.692C1257.87 837.83 1258.08 841.011 1257.98 844.189C1257.47 862.027 1246.87 879.132 1226.51 894.977C1204.88 911.789 1172.17 927.633 1129.35 941.88C1105.63 949.737 1079.51 956.86 1051.66 963.221C1050.7 963.493 1049.72 963.703 1048.73 963.852L1039.13 965.933C1036.62 966.417 1034.25 966.93 1031.8 967.399L1029.44 967.912C1028.06 968.146 1026.82 968.41 1025.46 968.659C1024.09 968.908 1022.52 969.289 1021.06 969.539L1018.68 970.022C1014.07 970.902 1009.82 971.649 1006.08 972.397C1004.48 972.895 1002.66 973.262 1000.83 973.511ZM957.636 976.017H958.266C961.755 975.636 965.243 975.138 968.614 974.639H968.951C971.091 974.39 973.202 974.009 975.327 973.775C977.453 973.54 979.725 973.144 981.689 972.895L982.187 972.778C986.804 972.016 990.981 971.4 994.675 970.887C998.676 970.271 1001.78 969.788 1005.79 969.026C1009.52 968.395 1013.77 967.56 1018.39 966.651L1020.76 966.153C1022.14 965.904 1023.62 965.654 1025 965.288L1028.89 964.526L1031.24 964.027C1033.62 963.529 1035.99 963.031 1038.49 962.562L1048.1 960.436C1049.1 960.187 1049.98 960.055 1051.03 959.806C1078.88 953.577 1104.74 946.336 1128.33 938.568C1170.84 924.467 1203.09 908.857 1224.33 892.251C1243.76 877.036 1253.87 860.928 1254.39 844.189C1254.49 841.244 1254.28 838.296 1253.76 835.395C1251.76 823.318 1244.96 813.043 1233.9 804.805C1217.44 792.728 1191.21 784.71 1155.77 781.354C1113.96 777.352 1066.77 780.254 1034.56 783.479C1005.11 786.41 981.513 790.06 970.153 791.966C958.794 793.871 935.46 798.195 906.629 805.157C861.601 816.135 821.734 829.239 791.657 843.266C759.455 858.187 737.278 874.164 725.64 890.888C717.652 902.364 714.662 914.471 716.656 926.578C717.122 929.388 717.858 932.147 718.854 934.816C724.717 950.543 739.711 962.532 763.53 970.521C789.121 979.125 824.694 983.126 869.253 982.496C893.979 982.129 920.817 980.385 949.018 977.146H949.267C950.565 977.042 951.856 976.87 953.136 976.633L957.636 976.017Z" fill="white"/>
<path d="M854.933 936.942L854.567 936.824H854.215L854.567 940.313C855.666 940.195 856.677 940.195 857.85 940.064C860.776 939.844 863.713 939.8 866.644 939.932C862.684 939.17 858.773 938.172 854.933 936.942ZM897.19 942.717H897.073V942.922H897.322M1257.11 834.971C1255 821.779 1247.76 810.874 1235.91 802.021C1218.93 789.416 1191.93 781.31 1155.88 777.807C1113.82 773.689 1066.47 776.708 1033.99 779.933C1004.53 782.864 980.81 786.514 969.333 788.536C957.856 790.559 934.581 794.678 905.486 801.728C859.565 812.97 820.606 825.825 789.899 840.057C757.052 855.183 734.435 871.658 722.372 888.88C713.754 901.236 710.515 914.237 712.757 927.326C713.138 929.59 713.682 931.824 714.384 934.01C714.633 934.758 714.868 935.476 715.132 936.209C715.308 936.663 715.484 937.117 715.674 937.572C722.255 953.695 737.895 965.89 762.064 974.024C788.037 982.819 824.109 986.879 869.063 986.263H869.81L870.294 985.648C876.772 978.788 883.749 971.694 890.726 965.655L891.151 965.289L895.021 961.918H889.07C855.739 962.24 828.887 959.265 809.217 952.859H809.041L809.276 952.771C826.527 945.839 840.818 941.998 853.98 940.503C865.456 943.829 877.293 945.753 889.231 946.234C881.116 945.823 873.039 944.843 865.061 943.303L860.825 942.365L859.11 941.866C857.454 941.427 855.827 940.958 854.303 940.401L853.936 940.313H853.804C851.52 939.614 849.279 938.782 847.091 937.821C834.252 939.946 820.093 944.27 803.383 951.306L799.309 953.05L799.045 953.167L803.442 954.794C823.024 962.123 850.653 965.904 885.332 965.772C879.469 971.02 873.841 976.883 868.476 982.496C824.343 983.141 789.136 979.037 763.75 970.536C740.767 962.856 726.022 951.482 719.778 936.502C719.529 935.945 719.294 935.403 719.089 934.816C718.884 934.23 718.635 933.585 718.444 932.969C717.761 930.88 717.227 928.744 716.847 926.579C714.853 914.501 717.843 902.365 725.832 890.874C737.382 874.164 759.543 858.188 791.789 843.325C821.866 829.342 861.69 816.239 906.747 805.216C935.577 798.225 958.926 793.857 970.286 792.025C981.645 790.193 1005.23 786.411 1034.69 783.538C1066.94 780.24 1114.07 777.412 1155.89 781.413C1191.35 784.784 1217.55 792.772 1234.03 804.865C1245.15 813.102 1251.88 823.333 1253.88 835.454C1254.4 838.355 1254.61 841.303 1254.51 844.249C1254.01 860.973 1243.89 877.067 1224.43 892.295C1203.34 908.77 1171.25 924.38 1129.16 938.363C1122.16 934.743 1114.67 931.035 1107.17 927.751C1139.75 916.275 1164.58 903.787 1181.06 890.551L1184.68 887.62H1183.93L1179.94 887.4C1156.73 885.934 1139.37 887.151 1125.52 891.138L1125.14 891.269L1124.77 891.519C1115.01 898.151 1104.54 903.658 1093.54 907.935L1091.78 908.55C1088.41 909.928 1084.79 911.306 1081.18 912.537L1078.93 913.299L1079 912.889C1079.13 912.024 1079.26 911.145 1079.37 910.28C1080.02 905.276 1080.29 900.229 1080.19 895.183C1080.2 894.385 1080.17 893.587 1080.08 892.794C1079.98 891.988 1080 891.196 1079.92 890.375C1079.85 889.555 1079.79 888.748 1079.72 887.928C1079.64 887.107 1079.54 886.301 1079.42 885.48C1079.28 884.38 1079.12 883.281 1078.93 882.182C1078.74 881.083 1078.47 879.998 1078.27 878.899C1078.16 878.342 1078.05 877.799 1077.93 877.272C1076.01 868.77 1072.88 860.59 1068.62 852.985C1067.17 850.376 1065.59 847.85 1063.9 845.407C1063.39 844.659 1062.86 843.941 1062.32 843.208C1061.78 842.475 1061.4 841.948 1060.85 841.332C1060.31 840.716 1059.83 840.013 1059.3 839.368C1053.48 832.182 1046.61 825.904 1038.94 820.739C1032.88 816.66 1026.33 813.342 1019.46 810.86C1005.21 805.708 989.91 804.123 974.903 806.242C973.426 806.391 971.958 806.621 970.506 806.931H970.125C955.255 809.882 941.332 816.424 929.568 825.986C924.148 830.297 919.279 835.259 915.072 840.76L914.72 841.259C911.867 844.97 909.295 848.89 907.025 852.985C906.571 853.805 906.146 854.626 905.721 855.447C905.295 856.268 905.046 856.752 904.738 857.44C904.431 858.129 904.181 858.54 903.947 859.126C902.704 861.857 901.603 864.651 900.649 867.495C900.385 868.257 900.136 868.961 899.887 869.797C899.638 870.632 899.418 871.262 899.198 872.112L898.7 873.886C898.735 873.995 898.735 874.113 898.7 874.223C898.7 874.414 898.582 874.619 898.538 874.824C898.392 875.337 898.275 875.923 898.157 876.407C898.142 876.47 898.142 876.535 898.157 876.597V876.759C898.04 877.198 897.967 877.594 897.879 878.019C897.791 878.444 897.718 878.781 897.63 879.119C897.468 879.925 897.322 880.745 897.19 881.552C896.883 883.353 896.619 885.161 896.398 886.975C896.398 887.59 896.267 888.221 896.208 888.836C896.149 889.452 896.076 890.493 896.017 891.328C895.798 895.033 895.798 898.748 896.017 902.453C896.105 903.919 896.208 905.384 896.369 906.85C896.353 907.176 896.388 907.502 896.472 907.818C896.618 908.902 896.765 909.87 896.926 910.852C896.909 911.062 896.944 911.274 897.029 911.467C897.014 911.505 897.014 911.547 897.029 911.584C897.038 911.752 897.062 911.919 897.102 912.083C897.087 912.12 897.087 912.162 897.102 912.2C897.116 912.402 897.145 912.603 897.19 912.801C897.19 913.241 897.322 913.666 897.41 914.105C898.21 918.402 899.307 922.639 900.693 926.784C902.507 932.377 904.869 937.778 907.743 942.907H907.816C908.3 943.772 908.813 944.637 909.282 945.516L909.839 946.395H909.224L904.724 946.615H910.982L914.28 946.483L912.551 943.772C912.36 943.479 912.184 943.186 912.008 942.863C908.723 937.449 906.058 931.681 904.064 925.67C902.582 921.273 901.455 916.763 900.693 912.185C900.459 910.573 900.195 909.078 900.063 907.451C899.975 906.586 899.887 905.707 899.814 904.842C899.138 897.253 899.478 889.608 900.825 882.109C903.192 868.004 908.968 854.69 917.652 843.325C918.853 841.86 920.114 840.291 921.418 838.826C924.611 835.171 928.107 831.793 931.869 828.727C943.163 819.577 956.514 813.314 970.77 810.478L971.136 810.405L973.027 810.083L975.225 809.716C989.655 807.683 1004.36 809.229 1018.05 814.216C1031.96 819.251 1044.38 827.711 1054.16 838.814C1063.93 849.917 1070.75 863.305 1073.99 877.741C1074.22 879.206 1074.6 880.672 1074.85 882.372C1075.57 886.494 1075.99 890.663 1076.11 894.846C1076.25 901.387 1075.67 907.923 1074.4 914.34C1074.38 914.618 1074.33 914.893 1074.25 915.161L1073.63 918.4L1076.76 917.403L1078.03 916.964L1082.11 915.498C1085.86 914.252 1089.36 912.874 1092.85 911.511L1094.59 910.881C1105.74 906.477 1116.37 900.869 1126.3 894.157C1138.79 890.668 1154.51 889.408 1174.49 890.287L1174.34 890.405C1157.61 902.966 1132.94 914.794 1101.06 925.582L1096.19 927.209L1100.88 929.071L1101.28 929.217C1110.36 932.902 1119.22 937.086 1127.84 941.749L1128.58 942.13H1129.08C1171.91 927.854 1204.61 912.039 1226.2 895.227C1246.63 879.368 1257.25 862.321 1257.7 844.454C1257.82 841.281 1257.62 838.105 1257.11 834.971ZM897.131 942.717H897.014V942.922H897.263M896.003 946.63H896.208L898.348 946.703H900.063C898.597 946.703 897.131 946.615 895.768 946.542H894.083M854.244 936.927L854.596 940.415C855.695 940.298 856.707 940.298 857.894 940.181C860.819 939.948 863.756 939.899 866.688 940.034C862.724 939.294 858.808 938.315 854.962 937.103L854.581 936.986L854.244 936.927ZM854.962 937.044L854.596 936.927H854.244L854.596 940.415C855.695 940.298 856.707 940.298 857.894 940.181C860.819 939.948 863.756 939.899 866.688 940.034C862.721 939.239 858.805 938.206 854.962 936.942V937.044ZM897.234 942.702H897.117V942.907H897.366M897.234 942.731H897.117V942.907H897.366M855.109 936.927L854.742 936.81H854.391L854.742 940.298C855.842 940.181 856.853 940.181 858.026 940.049C860.952 939.829 863.889 939.785 866.82 939.917C862.856 939.175 858.941 938.196 855.094 936.986L855.109 936.927Z" fill="white"/>
<path d="M854.933 936.942L854.567 936.824H854.215L854.567 940.313C855.666 940.195 856.677 940.195 857.85 940.064C860.776 939.844 863.713 939.8 866.644 939.932C862.684 939.17 858.773 938.172 854.933 936.942ZM897.19 942.717H897.073V942.922H897.322M1257.11 834.971C1255 821.779 1247.76 810.874 1235.91 802.021C1218.93 789.416 1191.93 781.31 1155.88 777.807C1113.82 773.689 1066.47 776.708 1033.99 779.933C1004.53 782.864 980.81 786.514 969.333 788.536C957.856 790.559 934.581 794.678 905.486 801.728C859.565 812.97 820.606 825.825 789.899 840.057C757.052 855.183 734.435 871.658 722.372 888.88C713.754 901.236 710.515 914.237 712.757 927.326C713.138 929.59 713.682 931.824 714.384 934.01C714.633 934.758 714.868 935.476 715.132 936.209C715.308 936.663 715.484 937.117 715.674 937.572C722.255 953.695 737.895 965.89 762.064 974.024C788.037 982.819 824.109 986.879 869.063 986.263H869.81L870.294 985.648C876.772 978.788 883.749 971.694 890.726 965.655L891.151 965.289L895.021 961.918H889.07C855.739 962.24 828.887 959.265 809.217 952.859H809.041L809.276 952.771C826.527 945.839 840.818 941.998 853.98 940.503C865.456 943.829 877.293 945.753 889.231 946.234C881.116 945.823 873.039 944.843 865.061 943.303L860.825 942.365L859.11 941.866C857.454 941.427 855.827 940.958 854.303 940.401L853.936 940.313H853.804C851.52 939.614 849.279 938.782 847.091 937.821C834.252 939.946 820.093 944.27 803.383 951.306L799.309 953.05L799.045 953.167L803.442 954.794C823.024 962.123 850.653 965.904 885.332 965.772C879.469 971.02 873.841 976.883 868.476 982.496C824.343 983.141 789.136 979.037 763.75 970.536C740.767 962.856 726.022 951.482 719.778 936.502C719.529 935.945 719.294 935.403 719.089 934.816C718.884 934.23 718.635 933.585 718.444 932.969C717.761 930.88 717.227 928.744 716.847 926.579C714.853 914.501 717.843 902.365 725.832 890.874C737.382 874.164 759.543 858.188 791.789 843.325C821.866 829.342 861.69 816.239 906.747 805.216C935.577 798.225 958.926 793.857 970.286 792.025C981.645 790.193 1005.23 786.411 1034.69 783.538C1066.94 780.24 1114.07 777.412 1155.89 781.413C1191.35 784.784 1217.55 792.772 1234.03 804.865C1245.15 813.102 1251.88 823.333 1253.88 835.454C1254.4 838.355 1254.61 841.303 1254.51 844.249C1254.01 860.973 1243.89 877.067 1224.43 892.295C1203.34 908.77 1171.25 924.38 1129.16 938.363C1122.16 934.743 1114.67 931.035 1107.17 927.751C1139.75 916.275 1164.58 903.787 1181.06 890.551L1184.68 887.62H1183.93L1179.94 887.4C1156.73 885.934 1139.37 887.151 1125.52 891.138L1125.14 891.269L1124.77 891.519C1115.01 898.151 1104.54 903.658 1093.54 907.935L1091.78 908.55C1088.41 909.928 1084.79 911.306 1081.18 912.537L1078.93 913.299L1079 912.889C1079.13 912.024 1079.26 911.145 1079.37 910.28C1080.02 905.276 1080.29 900.229 1080.19 895.183C1080.2 894.385 1080.17 893.587 1080.08 892.794C1079.98 891.988 1080 891.196 1079.92 890.375C1079.85 889.555 1079.79 888.748 1079.72 887.928C1079.64 887.107 1079.54 886.301 1079.42 885.48C1079.28 884.38 1079.12 883.281 1078.93 882.182C1078.74 881.083 1078.47 879.998 1078.27 878.899C1078.16 878.342 1078.05 877.799 1077.93 877.272C1076.01 868.77 1072.88 860.59 1068.62 852.985C1067.17 850.376 1065.59 847.85 1063.9 845.407C1063.39 844.659 1062.86 843.941 1062.32 843.208C1061.78 842.475 1061.4 841.948 1060.85 841.332C1060.31 840.716 1059.83 840.013 1059.3 839.368C1053.48 832.182 1046.61 825.904 1038.94 820.739C1032.88 816.66 1026.33 813.342 1019.46 810.86C1005.21 805.708 989.91 804.123 974.903 806.242C973.426 806.391 971.958 806.621 970.506 806.931H970.125C955.255 809.882 941.332 816.424 929.568 825.986C924.148 830.297 919.279 835.259 915.072 840.76L914.72 841.259C911.867 844.97 909.295 848.89 907.025 852.985C906.571 853.805 906.146 854.626 905.721 855.447C905.295 856.268 905.046 856.752 904.738 857.44C904.431 858.129 904.181 858.54 903.947 859.126C902.704 861.857 901.603 864.651 900.649 867.495C900.385 868.257 900.136 868.961 899.887 869.797C899.638 870.632 899.418 871.262 899.198 872.112L898.7 873.886C898.735 873.995 898.735 874.113 898.7 874.223C898.7 874.414 898.582 874.619 898.538 874.824C898.392 875.337 898.275 875.923 898.157 876.407C898.142 876.47 898.142 876.535 898.157 876.597V876.759C898.04 877.198 897.967 877.594 897.879 878.019C897.791 878.444 897.718 878.781 897.63 879.119C897.468 879.925 897.322 880.745 897.19 881.552C896.883 883.353 896.619 885.161 896.398 886.975C896.398 887.59 896.267 888.221 896.208 888.836C896.149 889.452 896.076 890.493 896.017 891.328C895.798 895.033 895.798 898.748 896.017 902.453C896.105 903.919 896.208 905.384 896.369 906.85C896.353 907.176 896.388 907.502 896.472 907.818C896.618 908.902 896.765 909.87 896.926 910.852C896.909 911.062 896.944 911.274 897.029 911.467C897.014 911.505 897.014 911.547 897.029 911.584C897.038 911.752 897.062 911.919 897.102 912.083C897.087 912.12 897.087 912.162 897.102 912.2C897.116 912.402 897.145 912.603 897.19 912.801C897.19 913.241 897.322 913.666 897.41 914.105C898.21 918.402 899.307 922.639 900.693 926.784C902.507 932.377 904.869 937.778 907.743 942.907H907.816C908.3 943.772 908.813 944.637 909.282 945.516L909.839 946.395H909.224L904.724 946.615H910.982L914.28 946.483L912.551 943.772C912.36 943.479 912.184 943.186 912.008 942.863C908.723 937.449 906.058 931.681 904.064 925.67C902.582 921.273 901.455 916.763 900.693 912.185C900.459 910.573 900.195 909.078 900.063 907.451C899.975 906.586 899.887 905.707 899.814 904.842C899.138 897.253 899.478 889.608 900.825 882.109C903.192 868.004 908.968 854.69 917.652 843.325C918.853 841.86 920.114 840.291 921.418 838.826C924.611 835.171 928.107 831.793 931.869 828.727C943.163 819.577 956.514 813.314 970.77 810.478L971.136 810.405L973.027 810.083L975.225 809.716C989.655 807.683 1004.36 809.229 1018.05 814.216C1031.96 819.251 1044.38 827.711 1054.16 838.814C1063.93 849.917 1070.75 863.305 1073.99 877.741C1074.22 879.206 1074.6 880.672 1074.85 882.372C1075.57 886.494 1075.99 890.663 1076.11 894.846C1076.25 901.387 1075.67 907.923 1074.4 914.34C1074.38 914.618 1074.33 914.893 1074.25 915.161L1073.63 918.4L1076.76 917.403L1078.03 916.964L1082.11 915.498C1085.86 914.252 1089.36 912.874 1092.85 911.511L1094.59 910.881C1105.74 906.477 1116.37 900.869 1126.3 894.157C1138.79 890.668 1154.51 889.408 1174.49 890.287L1174.34 890.405C1157.61 902.966 1132.94 914.794 1101.06 925.582L1096.19 927.209L1100.88 929.071L1101.28 929.217C1110.36 932.902 1119.22 937.086 1127.84 941.749L1128.58 942.13H1129.08C1171.91 927.854 1204.61 912.039 1226.2 895.227C1246.63 879.368 1257.25 862.321 1257.7 844.454C1257.82 841.281 1257.62 838.105 1257.11 834.971ZM897.131 942.717H897.014V942.922H897.263M896.003 946.63H896.208L898.348 946.703H900.063C898.597 946.703 897.131 946.615 895.768 946.542H894.083M854.244 936.927L854.596 940.415C855.695 940.298 856.707 940.298 857.894 940.181C860.819 939.948 863.756 939.899 866.688 940.034C862.724 939.294 858.808 938.315 854.962 937.103L854.581 936.986L854.244 936.927ZM854.962 937.044L854.596 936.927H854.244L854.596 940.415C855.695 940.298 856.707 940.298 857.894 940.181C860.819 939.948 863.756 939.899 866.688 940.034C862.721 939.239 858.805 938.206 854.962 936.942V937.044ZM854.977 936.927L854.611 936.81H854.259L854.611 940.298C855.71 940.181 856.721 940.181 857.894 940.049C860.82 939.829 863.757 939.785 866.688 939.917C862.724 939.175 858.809 938.196 854.962 936.986L854.977 936.927Z" fill="white"/>
<path d="M896.031 942.586L895.371 942.688H895.239C892.953 942.688 890.681 942.513 888.497 942.381C885.692 942.205 882.981 941.985 880.362 941.721C875.965 941.281 871.861 940.71 868.05 939.991C863.545 939.188 859.099 938.087 854.741 936.694L854.345 936.562H853.979C851.59 936.826 849.142 937.192 846.65 937.661C834.016 939.86 820.164 944.066 803.822 950.853C786.907 944.462 776.266 935.169 772.118 923.268C771.883 922.608 771.678 921.948 771.488 921.274C771.297 920.6 771.194 920.116 771.062 919.545C770.931 918.973 770.769 918.006 770.623 917.273C768.864 907.013 771.619 896.943 778.728 887.328L779.227 886.698C788.871 873.931 806.357 861.678 831.333 850.333C844.837 844.286 858.671 839.006 872.769 834.518C888.145 829.505 905.015 824.785 922.956 820.491C930.93 818.585 938.229 816.9 944.825 815.551C945.147 815.463 945.47 815.419 945.807 815.346C940.022 818.279 934.576 821.837 929.566 825.958C924.082 830.323 919.159 835.349 914.909 840.923L914.719 841.26C913.531 842.814 912.388 844.397 911.318 846.024C906.821 852.675 903.233 859.896 900.648 867.497C900.384 868.259 900.135 868.962 899.885 869.798C899.636 870.633 899.416 871.263 899.197 872.114C899.094 872.451 899.006 872.788 898.918 873.14C898.861 873.393 898.787 873.643 898.698 873.887V874.224C898.698 874.327 898.581 874.62 898.537 874.825C898.39 875.338 898.273 875.924 898.156 876.408C898.141 876.471 898.141 876.536 898.156 876.599V876.76C898.039 877.2 897.965 877.595 897.877 878.02C897.789 878.446 897.716 878.783 897.628 879.12C897.613 879.254 897.583 879.387 897.54 879.516C897.408 880.16 897.291 880.791 897.188 881.421C896.851 883.268 896.602 885.115 896.397 886.976C896.397 887.592 896.265 888.222 896.206 888.838C896.206 889.673 896.075 890.494 896.016 891.329C895.796 895.034 895.796 898.749 896.016 902.454C896.104 903.92 896.221 905.386 896.382 906.851C896.367 907.142 896.397 907.434 896.47 907.716C896.617 908.815 896.778 909.841 896.939 910.867C896.933 910.98 896.933 911.092 896.939 911.205L897.159 912.67C897.335 913.77 897.526 914.869 897.775 915.968C897.748 916.074 897.748 916.185 897.775 916.291C897.907 916.906 898.039 917.522 898.185 918.108C898.742 920.497 899.372 922.74 900.047 924.894C900.223 925.481 900.413 925.994 900.589 926.624L901.322 928.676C901.571 929.38 901.82 930.054 902.099 930.743C902.641 932.106 903.198 933.469 903.784 934.817C904.048 935.389 904.297 935.902 904.576 936.518C904.854 937.133 905.118 937.617 905.397 938.189C906.144 939.654 906.965 941.252 907.815 942.718C908.299 943.583 908.812 944.447 909.281 945.327L909.823 946.206H909.207L904.708 946.411H911.157L914.396 946.279L912.798 943.568C912.608 943.275 912.432 942.967 912.241 942.659C908.894 937.28 906.161 931.542 904.092 925.554C902.635 921.154 901.533 916.645 900.794 912.069C900.56 910.457 900.31 908.947 900.179 907.335C900.061 906.382 899.959 905.444 899.885 904.492C899.261 896.976 899.63 889.411 900.985 881.993C903.377 867.911 909.173 854.628 917.87 843.297C918.808 842.11 919.761 840.952 920.801 839.809C933.758 824.606 951.505 814.268 971.12 810.494V810.48L970.519 806.991V806.918L964.011 808.091C954.396 809.849 939.739 812.752 922.282 816.885C885.712 825.679 854.756 835.749 830.043 846.976C805.009 858.409 787.054 870.765 776.94 883.854L776.427 884.484C768.322 895.228 765.2 906.47 767.193 917.947C767.325 918.709 767.486 919.413 767.662 920.146C767.838 920.878 767.999 921.611 768.19 922.256C768.38 922.901 768.512 923.355 768.673 923.839C772.733 936.21 782.95 945.942 799.043 952.846L799.322 952.978C800.626 953.535 801.989 954.077 803.396 954.605L804.144 954.839L804.774 954.605L809.171 952.773L809.421 952.685C826.57 945.796 840.773 941.882 854.008 940.387H854.184C855.767 940.886 857.423 941.34 859.123 941.853C857.467 941.413 855.826 940.944 854.316 940.387L853.935 940.299H853.818C851.529 939.598 849.283 938.766 847.09 937.808C849.508 937.397 851.868 937.06 854.184 936.811L854.536 940.299C855.635 940.182 856.661 940.182 857.834 940.065C860.759 939.832 863.696 939.783 866.628 939.918C871.756 940.914 876.932 941.648 882.135 942.117C884.319 942.322 886.533 942.483 888.834 942.63C891.135 942.776 893.348 942.864 895.664 942.938H895.781L896.192 942.85H897.027V943.04H898.596C900.633 943.04 902.656 943.157 904.576 943.157H907.712C907.683 943.117 907.658 943.072 907.639 943.026H904.341C902.436 943.026 900.428 942.938 898.405 942.923H896.969M896.162 946.807L898.244 946.88H900.061C898.596 946.88 897.13 946.792 895.767 946.734H894.301M895.987 942.85L896.236 942.938ZM907.624 943.201H904.327C902.421 943.201 900.428 943.114 898.464 943.099H897.643L897.291 943.011H897.042V943.113H898.596C900.633 943.113 902.656 943.231 904.59 943.231H907.712V943.113L907.624 943.201Z" fill="white"/>
<path d="M1073.88 918.592L1074.51 915.294C1075.89 908.604 1076.52 901.78 1076.37 894.95C1076.27 890.786 1075.85 886.637 1075.13 882.535C1074.88 880.908 1074.51 879.413 1074.26 877.918C1069.29 855.694 1055.91 836.258 1036.92 823.686C1031.12 819.828 1024.87 816.688 1018.32 814.335C1004.62 809.351 989.917 807.811 975.489 809.85L974.814 806.273C983.301 804.895 1001.02 802.155 1023.49 800.029C1048.82 797.523 1086.03 795.28 1119.48 798.27H1119.73C1147.68 800.777 1168.92 806.64 1183.01 815.756L1183.64 816.123C1194.75 823.452 1201.36 832.847 1203.23 844.221C1203.52 845.868 1203.68 847.534 1203.73 849.204C1204.23 863.554 1196.49 877.552 1180.68 890.523L1180.05 891.022H1179.3C1157.09 889.644 1139.72 890.772 1126.25 894.642C1116.32 901.348 1105.69 906.956 1094.55 911.366L1092.81 911.996C1089.3 913.359 1085.81 914.737 1082.06 915.983C1080.32 916.599 1078.57 917.229 1076.7 917.859L1073.88 918.592ZM1000.83 806.083C1007.19 806.979 1013.44 808.526 1019.49 810.7C1026.36 813.182 1032.91 816.5 1038.97 820.579C1051.3 828.803 1061.48 839.86 1068.67 852.825C1072.9 860.439 1076.01 868.631 1077.88 877.141C1078.25 878.768 1078.5 880.439 1078.87 882.007C1079.59 886.301 1080.02 890.641 1080.13 894.994C1080.27 901.054 1079.85 907.114 1078.87 913.096L1081.12 912.348C1084.74 911.102 1088.36 909.724 1091.74 908.347L1093.48 907.731C1104.47 903.374 1114.94 897.794 1124.69 891.095L1125.05 890.846L1125.43 890.714C1139.17 886.727 1156.21 885.584 1179.11 886.962C1193.59 874.884 1200.71 862.044 1200.2 849.146C1200.16 847.596 1199.99 846.052 1199.7 844.529C1197.96 834.415 1192.09 825.929 1182.23 819.186L1181.73 818.82C1168.25 810.025 1147.4 804.163 1119.82 801.583H1119.57C1086.37 798.651 1049.29 800.835 1023.96 803.342C1015.47 804.251 1007.72 805.13 1000.83 806.083Z" fill="white"/>
<path d="M897.245 942.821V942.923H897.611L897.245 942.821ZM907.666 942.938H904.368C902.463 942.938 900.455 942.85 898.432 942.821L898.623 942.953C900.66 942.953 902.683 943.055 904.603 943.055H907.739C907.71 943.014 907.685 942.97 907.666 942.923V942.938ZM896.277 942.674L895.471 942.806C893.17 942.806 890.942 942.63 888.758 942.484C886.237 942.352 883.819 942.176 881.43 941.927C876.651 941.502 871.917 940.827 867.212 939.933C863.017 939.157 858.875 938.115 854.812 936.811L854.431 936.694H854.314L854.05 936.606C841.034 932.209 832.196 925.686 827.755 916.951C827.324 916.116 826.938 915.26 826.597 914.386C826.421 913.946 826.245 913.491 826.084 913.037C825.538 911.486 825.122 909.893 824.838 908.273C823.739 902.279 825.717 896.196 830.701 889.923C835.004 884.771 840.03 880.269 845.622 876.555C853.077 871.454 860.918 866.94 869.074 863.056C882.698 856.521 896.718 850.847 911.052 846.068L911.331 845.965C909.787 848.252 908.36 850.597 907.051 853.001C906.596 853.822 906.171 854.642 905.746 855.463C905.321 856.284 905.087 856.768 904.764 857.442C904.442 858.116 904.207 858.541 903.973 859.142C902.741 861.868 901.642 864.668 900.675 867.512C900.411 868.274 900.162 868.977 899.912 869.813C899.663 870.648 899.443 871.278 899.224 872.114C899.004 872.949 898.886 873.301 898.74 873.902C898.755 874.022 898.723 874.142 898.652 874.239C898.652 874.43 898.535 874.635 898.491 874.826C898.344 875.353 898.227 875.925 898.11 876.423C898.095 876.486 898.095 876.551 898.11 876.614V876.775C897.992 877.2 897.919 877.61 897.831 878.035C897.743 878.461 897.597 879.061 897.509 879.501C897.421 879.941 897.245 880.762 897.142 881.407C896.82 883.253 896.556 885.1 896.351 886.962C896.351 887.577 896.219 888.193 896.16 888.823C896.102 889.453 896.028 890.48 895.984 891.3C895.764 895.005 895.764 898.72 895.984 902.425C896.072 903.891 896.175 905.357 896.336 906.822C896.321 907.113 896.351 907.405 896.424 907.687C896.571 908.786 896.732 909.812 896.893 910.824C896.886 910.941 896.886 911.058 896.893 911.176L897.113 912.641C897.289 913.746 897.494 914.845 897.729 915.939C897.702 916.045 897.702 916.156 897.729 916.262C897.875 916.863 898.007 917.478 898.139 918.079C898.711 920.468 899.326 922.711 900 924.866C900.176 925.437 900.367 925.965 900.543 926.595L901.276 928.647C901.525 929.336 901.774 930.025 902.052 930.714C902.595 932.077 903.152 933.44 903.753 934.774C904.002 935.36 904.266 935.873 904.53 936.489C904.793 937.104 905.072 937.588 905.365 938.16C906.112 939.625 906.919 941.208 907.769 942.689C908.252 943.554 908.78 944.404 909.234 945.283L909.777 946.177H909.161L904.661 946.382H911.125L914.365 946.251L912.899 943.671C912.668 943.316 912.458 942.949 912.269 942.572C909.026 937.193 906.392 931.471 904.412 925.51C902.916 921.122 901.789 916.616 901.041 912.04C900.792 910.413 900.543 908.918 900.411 907.291C899.414 898.853 899.665 890.314 901.158 881.949C903.587 867.86 909.418 854.577 918.146 843.254L921.063 839.795L921.928 838.695L921.576 838.798L916.182 840.527L915.288 840.821H915.156C915.1 840.815 915.044 840.821 914.991 840.839C914.938 840.857 914.889 840.885 914.848 840.923C906.054 843.855 897.807 846.83 890.107 849.85C882.084 853.015 874.653 856.26 867.813 859.582C848.846 868.699 835.362 878.065 828.004 887.431C822.375 894.554 820.133 901.78 821.408 908.772C821.698 910.169 822.065 911.549 822.507 912.905C822.786 913.829 823.108 914.752 823.46 915.646C823.621 916.013 823.768 916.394 823.944 916.745C827.872 925.628 835.538 932.59 846.853 937.515H847.029L847.322 937.647C849.726 937.236 852.1 936.899 854.416 936.635L854.768 940.138C855.867 940.006 856.879 940.006 858.051 939.889C860.977 939.665 863.914 939.616 866.846 939.743C871.966 940.754 877.138 941.488 882.338 941.941C884.537 942.161 886.736 942.322 889.051 942.454C891.367 942.586 893.551 942.689 895.867 942.762H895.984L896.409 942.674H897.23M907.974 943.011C907.944 942.971 907.919 942.926 907.901 942.879H904.603C902.697 942.879 900.689 942.791 898.74 942.777L898.916 942.894C900.953 942.894 902.976 943.011 904.911 943.011H907.974ZM897.494 942.835L897.846 942.762H897.494V942.835ZM896.395 946.514L898.476 946.602H900.162C898.696 946.602 897.23 946.514 895.867 946.441H894.196M907.549 942.982H904.251C902.346 942.982 900.338 942.894 898.315 942.879H896.849V942.982H898.593C900.631 942.982 902.653 943.099 904.573 943.099H907.71C907.685 943.044 907.67 942.984 907.666 942.923L907.549 942.982Z" fill="white"/>
<path d="M1073.88 918.591L1074.51 915.293C1075.89 908.603 1076.52 901.778 1076.37 894.949C1076.27 890.785 1075.85 886.635 1075.13 882.534C1074.88 880.907 1074.51 879.412 1074.26 877.917C1069.29 855.693 1055.9 836.257 1036.92 823.685L1031.93 820.314L1037.93 820.196C1054.88 819.917 1071.84 820.651 1088.71 822.395C1109.69 824.887 1125.36 829.123 1135.62 835.381C1143.61 840.116 1148.22 846.11 1149.35 853.102C1149.71 855.497 1149.84 857.923 1149.72 860.343C1149.09 872.42 1141.35 883.794 1126.75 894.172L1126.37 894.406C1118.13 900.269 1107.42 905.78 1094.8 911.013L1093.05 911.643C1089.55 913.006 1086.06 914.384 1082.32 915.63C1080.58 916.26 1078.82 916.89 1076.94 917.506L1073.88 918.591ZM1043.7 823.861C1053.92 831.637 1062.4 841.456 1068.62 852.692C1072.87 860.315 1075.99 868.516 1077.88 877.037C1078.25 878.664 1078.5 880.335 1078.86 881.904C1079.59 886.197 1080.01 890.537 1080.12 894.89C1080.27 900.95 1079.85 907.01 1078.86 912.992L1081.12 912.244C1084.74 910.998 1088.36 909.62 1091.73 908.243L1093.48 907.627C1104.47 903.303 1114.93 897.757 1124.68 891.094L1125.05 890.844C1138.42 881.229 1145.57 870.867 1146.02 860.064C1146.15 857.932 1146.03 855.792 1145.66 853.688C1144.68 847.825 1140.66 842.915 1133.7 838.621C1123.96 832.758 1108.78 828.639 1088.26 826.147C1073.46 824.552 1058.59 823.789 1043.7 823.861Z" fill="white"/>
<path d="M907.668 942.922H904.37C902.464 942.922 900.456 942.834 898.434 942.819L898.624 942.936C900.661 942.936 902.684 943.039 904.604 943.039H907.741C907.708 943.006 907.683 942.966 907.668 942.922ZM914.322 946.381L912.856 943.801C912.62 943.45 912.41 943.083 912.226 942.702C908.987 937.327 906.352 931.61 904.37 925.655C902.874 921.262 901.746 916.751 900.999 912.171C900.749 910.558 900.5 909.063 900.368 907.436L900.061 904.432L899.723 904.666L897.598 906.044L896.264 906.923H896.191C892.991 909.085 889.998 911.539 887.25 914.252C882.604 918.898 880.346 923.545 880.493 927.971V928.602C880.512 929.66 880.68 930.711 880.991 931.724C881.079 932.061 881.197 932.398 881.299 932.735C882.093 934.995 883.323 937.076 884.92 938.862C886.021 940.118 887.249 941.257 888.584 942.262L888.76 942.379C888.814 942.417 888.863 942.462 888.906 942.511C891.09 942.643 893.377 942.746 895.722 942.819H895.825L895.561 942.687L895.341 942.57L895.092 942.453L894.593 942.086H894.461L893.377 941.441C890.741 939.972 888.436 937.977 886.605 935.578C885.577 934.187 884.83 932.609 884.407 930.932C884.407 930.624 884.289 930.258 884.245 929.833C884.201 929.408 884.099 928.865 884.025 928.367C883.644 924.864 885.652 921.038 889.654 916.876C891.85 914.651 894.239 912.626 896.792 910.822V912.229C896.813 912.392 896.842 912.553 896.88 912.713C897.056 913.817 897.261 914.916 897.495 916.011C897.469 916.117 897.469 916.228 897.495 916.333C897.642 916.949 897.774 917.565 897.906 918.151C898.478 920.54 899.093 922.783 899.767 924.937C899.943 925.523 900.134 926.036 900.324 926.667L901.043 928.733C901.292 929.422 901.541 930.097 901.819 930.785C902.362 932.149 902.919 933.512 903.52 934.86C903.783 935.432 904.033 935.945 904.296 936.56C904.56 937.176 904.839 937.66 905.132 938.231C905.879 939.697 906.686 941.295 907.536 942.76C908.019 943.625 908.547 944.49 909.001 945.369L909.544 946.249H908.928L904.428 946.454H910.892L914.132 946.322L914.322 946.381ZM907.741 943.083C907.708 943.05 907.683 943.01 907.668 942.966H904.37C902.464 942.966 900.456 942.878 898.434 942.863L898.624 942.98C900.661 942.98 902.684 943.083 904.604 943.083H907.741ZM907.668 942.966H904.37C902.464 942.966 900.456 942.878 898.434 942.863H897.598L897.246 942.936H898.595C900.632 942.936 902.655 943.039 904.59 943.039H907.712C907.704 943 907.704 942.96 907.712 942.922L907.668 942.966Z" fill="white"/>
<path d="M1073.88 918.593L1074.51 915.295C1075.89 908.605 1076.52 901.78 1076.37 894.951C1076.27 890.787 1075.85 886.637 1075.13 882.536C1074.88 880.909 1074.51 879.414 1074.26 877.919L1073.63 874.973L1076.64 875.72C1080.67 876.669 1084.59 878.009 1088.36 879.722C1095.11 882.844 1099.09 886.845 1100.22 891.447C1100.35 892.078 1100.47 892.708 1100.59 893.455C1101.47 899.568 1099.22 905.533 1093.73 911.308L1093.48 911.543L1093.1 911.675C1089.61 913.052 1086.12 914.43 1082.37 915.676C1080.62 916.292 1078.87 916.922 1077 917.537L1073.88 918.593ZM1078.5 880.029L1078.87 881.891C1079.59 886.184 1080.01 890.524 1080.13 894.877C1080.27 900.937 1079.85 906.998 1078.87 912.979L1081.12 912.231C1084.61 910.986 1087.98 909.725 1091.38 908.362C1095.78 903.496 1097.64 898.63 1097.01 893.881C1096.88 893.382 1096.88 892.884 1096.76 892.254C1095.88 888.765 1092.51 885.672 1086.87 883.02C1084.16 881.803 1081.36 880.803 1078.5 880.029Z" fill="white"/>
<path d="M1151.65 953.549C1146.02 951.175 1139.28 947.686 1132.17 944.051L1128.05 941.94L1129.8 938.643L1133.92 940.768C1141.04 944.388 1147.65 947.891 1153.15 950.134L1151.65 953.549Z" fill="white"/>
<path d="M1095.27 910.737L1092.89 907.805C1102.12 900.275 1112.71 894.601 1124.1 891.096C1124.46 890.991 1124.83 890.864 1125.18 890.715L1126.06 894.335C1125.81 894.452 1125.43 894.452 1125.18 894.584C1114.27 898.013 1104.12 903.495 1095.27 910.737Z" fill="white"/>
<path d="M1083.12 915.102L1080.18 912.903C1086.54 904.666 1092.04 898.246 1097.27 892.383C1113.25 875.043 1128.99 864.314 1146.83 858.568L1147.21 858.436C1165.01 853.002 1183.27 849.238 1201.77 847.194C1219.87 845.01 1238.34 843.589 1256 842.343L1257.87 842.211C1275.98 840.906 1292.92 839.66 1309.17 837.535L1309.67 841.287C1293.32 843.398 1276.22 844.659 1258.12 845.904L1256.25 846.022C1238.53 847.282 1220.18 848.645 1202.01 850.888C1180.79 853.512 1163.07 857.147 1148.09 861.998L1147.72 862.13C1130.68 867.641 1115.52 878.151 1099.84 895.006C1094.84 900.488 1089.49 906.981 1083.12 915.102Z" fill="white"/>
<path d="M1079.75 896.005L1076.59 894.026C1079.96 888.779 1082.97 884.279 1085.83 880.292C1100.87 859.42 1115.67 845.32 1132.89 835.837L1133.14 835.72C1133.36 835.615 1133.58 835.488 1133.77 835.338C1146.88 828.098 1162.72 821.722 1181.95 815.566H1182.07C1198.43 810.45 1214.77 806.332 1234.38 801.465L1235.48 801.216C1251.6 797.229 1266.8 793.521 1281.28 789.139L1282.38 792.627C1267.92 797.024 1252.55 800.864 1236.45 804.866L1235.35 805.115C1215.81 810.055 1199.45 814.115 1183.11 819.23H1182.95C1163.98 825.225 1148.37 831.586 1135.38 838.71C1135.13 838.842 1135.02 838.959 1134.89 838.959L1134.65 839.076C1118.04 848.325 1103.43 862.044 1088.83 882.52C1086.12 886.39 1083.12 890.89 1079.75 896.005Z" fill="white"/>
<path d="M1068.62 854.451L1065.38 852.575C1070.9 842.638 1077.56 833.38 1085.22 824.99C1085.86 824.359 1086.47 823.612 1087.1 822.996C1096.59 813.562 1107.15 805.264 1118.56 798.269L1118.92 798.035C1130.3 790.78 1142.52 784.301 1154.99 777.691L1156.87 776.679C1166.98 771.315 1176.64 766.317 1185.42 761.201L1187.34 764.484C1178.36 769.717 1168.74 774.745 1158.63 780.08L1156.77 781.091C1144.15 787.672 1131.92 794.18 1120.53 801.435L1120.15 801.67C1109.06 808.396 1098.81 816.432 1089.64 825.605L1087.78 827.467C1080.51 835.805 1074.09 844.844 1068.62 854.451Z" fill="white"/>
<path d="M1020.59 813.116L1017.1 811.739C1018.48 808.367 1020.1 804.996 1022.08 800.76C1025.45 793.901 1029.21 787.026 1032.71 780.665L1033.94 778.54C1037.08 772.809 1040.43 766.931 1043.31 761.186L1046.63 762.827C1043.7 768.573 1040.38 774.553 1037.27 780.313L1036.02 782.439C1032.52 788.8 1028.78 795.542 1025.41 802.417C1023.45 806.506 1021.83 809.877 1020.59 813.116Z" fill="white"/>
<path d="M929.449 828.595C926.957 825.664 924.216 822.982 921.211 819.977C916.096 814.862 910.731 810.098 904.737 804.763L903.095 803.297C897.848 798.577 892.835 794.195 888.115 789.578L890.768 787.027C895.385 791.527 900.369 796.012 905.616 800.629L907.243 802.007C913.238 807.372 918.602 812.267 923.85 817.368C926.781 820.299 929.581 823.231 932.204 826.162L929.449 828.595Z" fill="white"/>
<path d="M1126.29 894.258C1116.37 900.971 1105.74 906.578 1094.59 910.982L1092.85 911.613C1089.36 912.976 1085.85 914.353 1082.1 915.599L1078.03 917.065L1076.75 917.505L1073.63 918.501L1074.25 915.262C1074.31 914.991 1074.36 914.717 1074.39 914.441C1070.55 915.717 1066.39 916.992 1061.89 918.384C1053.9 920.744 1045.28 922.987 1035.8 925.244C1026.32 927.501 1016.45 929.641 1006.22 931.473C1001.6 932.353 997.481 933.086 993.866 933.672C990.377 934.17 986.127 934.932 981.378 935.665C970.649 937.424 961.033 938.787 951.931 939.784C942.184 940.883 932.95 941.792 924.214 942.29C920.228 942.51 916.138 942.627 912.225 942.73H911.785C911.961 943.052 912.151 943.346 912.342 943.639L914.057 946.35H914.306C916.637 946.35 918.952 946.189 921.239 946.087L924.713 945.896C933.507 945.398 942.814 944.518 952.562 943.404C961.678 942.408 971.279 941.03 982.14 939.271C984.148 939.022 986.068 938.729 987.9 938.435L991.052 937.908L992.151 937.703L994.599 937.292C998.219 936.662 1002.45 935.914 1007.07 935.035C1017.07 933.215 1027.02 931.138 1036.91 928.806C1041.14 927.828 1045.19 926.812 1049.07 925.757H1049.28C1054.14 924.467 1058.77 923.148 1063.25 921.843C1068.1 920.48 1072.62 918.985 1076.86 917.607C1077.22 917.475 1077.6 917.358 1077.95 917.212C1079.42 916.728 1080.81 916.23 1082.21 915.746C1085.96 914.5 1089.45 913.122 1092.93 911.744L1094.69 911.129C1105.84 906.719 1116.47 901.112 1126.4 894.405C1138.81 890.916 1154.45 889.671 1174.31 890.521L1174.46 890.418C1154.57 889.509 1138.78 890.77 1126.29 894.258ZM896.278 942.627L895.471 942.759C893.17 942.759 890.942 942.583 888.758 942.437C886.237 942.305 883.819 942.129 881.43 941.88C876.651 941.455 871.917 940.781 867.212 939.886C863.017 939.111 858.875 938.068 854.812 936.764L854.431 936.647H854.05C851.719 936.911 849.36 937.219 846.926 937.644C834.101 939.784 819.972 944.078 803.262 951.114L799.173 952.858L798.895 952.99L799.173 953.107L803.204 954.573C823.812 962.253 853.039 966.05 890.078 965.551H890.781C901.569 965.405 913.192 964.921 925.167 964.086L927.292 963.968C928.025 963.851 928.905 963.851 929.784 963.719L930.781 963.587C935.779 963.221 940.66 962.84 945.438 962.341C948.37 962.107 951.066 961.726 953.675 961.477L959.04 960.846C961.415 960.597 963.789 960.216 966.046 959.967L966.662 959.85C974.147 958.97 981.388 957.969 988.384 956.845C992.122 956.361 995.258 955.848 997.867 955.379C1000.48 954.91 1003.73 954.368 1006.85 953.62C1014.18 952.257 1021.51 950.689 1028.71 949.121C1031.2 948.637 1033.69 948.124 1036.31 947.508L1041.43 946.262C1043.8 945.632 1046.18 945.163 1048.67 944.518C1053.17 943.507 1057.79 942.261 1062.52 941.015L1065.45 940.268C1066.55 940.018 1067.58 939.652 1068.69 939.388L1069.09 939.256C1080.39 936.061 1091.32 932.748 1101.55 929.319L1102.02 929.157H1102.15C1137.16 917.285 1163.51 904.24 1180.64 890.154L1184.01 887.384L1184.25 887.164L1179.5 886.915C1156.3 885.449 1138.94 886.666 1125.08 890.667L1124.71 890.785L1124.34 891.034C1114.59 897.688 1104.12 903.215 1093.12 907.509L1091.38 908.139C1088.01 909.502 1084.4 910.88 1080.78 912.126L1079.1 912.727L1075.59 913.958L1074.61 914.31C1070.77 915.585 1066.61 916.86 1062.11 918.252C1054.12 920.612 1045.5 922.855 1036.02 925.112C1026.54 927.369 1016.67 929.509 1006.44 931.341C1001.82 932.221 997.701 932.954 994.086 933.54C990.597 934.038 986.347 934.8 981.598 935.533C970.868 937.292 961.253 938.655 952.151 939.652C942.404 940.751 933.17 941.66 924.434 942.158C920.447 942.378 916.358 942.495 912.445 942.598H910.979C909.967 942.598 908.971 942.686 908.047 942.715H904.691C902.785 942.715 900.792 942.627 898.828 942.598H897.362V942.862H898.593C900.616 942.862 902.639 942.979 904.574 942.979H907.696L907.622 942.847H907.696C908.179 943.727 908.707 944.577 909.161 945.456L909.704 946.35H914.262C916.593 946.277 918.908 946.174 921.195 946.072L924.669 945.881C933.463 945.383 942.756 944.518 952.518 943.39C961.62 942.393 971.279 941.074 982.14 939.315C984.148 939.066 986.068 938.773 987.886 938.479L991.037 937.952L992.136 937.747L994.584 937.336C998.219 936.706 1002.45 935.958 1007.07 935.079C1017.07 933.265 1027.02 931.188 1036.91 928.85C1041.14 927.872 1045.19 926.856 1049.07 925.801H1049.27C1054.14 924.526 1058.77 923.206 1063.24 921.902C1068.1 920.524 1072.6 918.971 1076.86 917.651C1077.22 917.519 1077.59 917.402 1077.94 917.256C1079.41 916.772 1080.87 916.288 1082.21 915.79C1085.96 914.544 1089.45 913.166 1092.93 911.788L1094.69 911.173C1105.84 906.766 1116.47 901.158 1126.4 894.449C1138.81 890.96 1154.45 889.715 1174.31 890.565H1174.58C1157.85 903.17 1133.26 914.91 1101.29 925.742H1101.17L1096.23 927.398C1087.34 930.33 1078.01 933.1 1068.38 935.738L1068 935.856C1066.9 936.12 1065.89 936.486 1064.7 936.735L1061.22 937.615C1056.73 938.86 1052.23 939.974 1048.02 940.986C1045.53 941.601 1043.17 942.085 1040.8 942.73L1035.68 943.976C1033.06 944.474 1030.55 945.075 1028.06 945.603C1020.82 947.069 1013.58 948.608 1006.34 950C1002.84 950.616 999.758 951.099 996.973 951.612C994.188 952.125 991.242 952.609 987.622 953.078C980.674 954.119 973.346 955.233 966.017 956.112L965.401 956.229C963.203 956.61 960.784 956.86 958.41 957.109L953.045 957.724C950.422 958.105 947.681 958.355 944.925 958.604C940.191 958.985 935.325 959.483 930.444 959.85L929.579 959.982C928.699 960.099 927.952 960.099 927.087 960.231L924.947 960.348C914.13 961.125 903.679 961.609 893.8 961.814L890.004 961.887H889.139C855.867 962.21 829.045 959.234 809.404 952.858H809.125C826.348 945.925 840.507 942.041 853.933 940.546H853.801C851.519 939.84 849.277 939.009 847.088 938.054C849.506 937.644 851.866 937.307 854.182 937.043L854.534 940.546C855.633 940.414 856.644 940.414 857.831 940.297C860.757 940.072 863.694 940.023 866.626 940.15C871.747 941.161 876.919 941.895 882.119 942.349C884.317 942.554 886.516 942.73 888.832 942.862C891.147 942.994 893.331 943.096 895.647 943.17H895.662L896.087 943.082H896.922" fill="white"/>
<path d="M897.759 883.149C889.425 875.91 880.293 869.645 870.54 864.475L867.608 863.01C855.676 857.451 843.152 853.261 830.276 850.522C817.539 847.59 804.186 845.524 790.57 843.413L788.386 843.032C776.939 841.258 766.224 839.631 755.861 837.638L756.624 834.018C766.972 836.011 777.715 837.638 788.87 839.382L791.068 839.763C804.802 841.889 818.155 843.867 831.024 846.872C844.165 849.673 856.949 853.945 869.133 859.609L872.138 861.075C882.186 866.359 891.573 872.814 900.104 880.305L897.759 883.149Z" fill="white"/>
<path d="M901.249 927.545C896.251 923.676 891.648 920.217 887.149 917.065C866.804 902.819 848.761 894.347 830.102 890.594L828.856 890.345C814.58 887.604 798.076 886.608 777.922 887.414H777.805C759.703 888.029 740.854 889.905 724.247 891.532H723.866C706.659 893.218 690.462 894.845 675.321 895.49L675.189 891.752C690.169 891.137 706.409 889.554 723.559 887.765H723.925C740.488 886.109 759.352 884.233 777.556 883.617H777.688C798.032 882.855 815.035 883.852 829.487 886.739L830.747 886.974C849.802 890.858 868.446 899.462 889.157 914.061C893.656 917.359 898.391 920.656 903.433 924.673L901.249 927.545Z" fill="white"/>
<path d="M905.749 943.055H904.65C902.715 943.055 900.692 942.967 898.655 942.953L898.479 942.821C894.184 940.109 890.271 937.793 886.563 935.727C884.906 934.803 883.265 933.909 881.696 933.074L881.257 932.854C861.982 922.594 844.936 917.581 827.684 916.936H823.697C809.04 916.936 792.111 919.076 772.089 923.297L770.213 923.678L768.747 924.015C751.862 927.621 734.86 932.341 719.601 936.591L717.549 937.148L715.717 937.632C697.982 942.63 681.258 947.247 665.648 950.487L664.812 946.793C680.173 943.554 696.853 938.981 714.369 934.012L714.618 933.938L716.479 933.44L718.209 932.956C733.511 928.72 750.704 924.001 767.619 920.205L769.275 919.823L770.99 919.472C790.821 915.221 807.633 913.081 822.29 912.979H825.969C843.719 913.36 861.147 918.153 880.377 928.046L883.309 929.512L884.144 929.966C890.476 933.352 897.409 937.544 905.588 942.865L905.749 943.055Z" fill="white"/>
<path d="M896.645 942.774H896.161L895.751 942.862H895.663C893.347 942.789 891.075 942.686 888.832 942.554C886.59 942.422 884.303 942.247 882.134 942.041L881.387 941.865C881.058 941.778 880.725 941.705 880.39 941.646C876.339 940.74 872.222 940.161 868.078 939.916H866.671C863.739 939.789 860.802 939.838 857.876 940.063C856.777 940.18 855.766 940.18 854.578 940.312L854.227 936.809V936.53C855.346 936.394 856.471 936.316 857.598 936.296C866.774 935.664 875.992 936.561 884.875 938.949C887.65 939.682 890.469 940.537 893.332 941.514L894.417 941.909H894.681L895.047 942.159L896.073 942.554L896.322 942.642C896.43 942.687 896.544 942.717 896.659 942.73L896.645 942.774Z" fill="white"/>
<path d="M729.377 989.751L727.984 986.365C738.728 981.865 749.97 976.369 761.828 970.506L762.707 970.125C775.899 963.646 789.53 956.933 803.264 951.158L804.642 954.529C791.04 960.275 777.423 966.885 764.32 973.379L763.455 973.877C751.465 979.755 740.296 985.251 729.377 989.751Z" fill="white"/>
<path d="M1000.83 973.511C999.086 973.775 997.21 974.142 995.216 974.391C991.464 975.007 987.228 975.637 982.597 976.384L981.497 976.516L975.752 977.264C973.758 977.513 971.648 977.894 969.405 978.129H968.951C965.594 978.642 961.974 979.008 958.339 979.594H957.972L953.355 980.078C925.401 983.406 897.297 985.324 869.149 985.824L864.752 985.941L867.683 982.658C874.362 975.437 881.401 968.559 888.775 962.05L889.274 961.551H889.889C902.245 961.419 915.613 960.804 929.464 959.675L930.475 959.558C935.459 959.191 940.354 958.678 944.957 958.312C947.888 958.048 950.702 957.682 953.443 957.432L958.441 956.817C960.816 956.553 963.044 956.304 965.169 955.937L965.931 955.82C973.421 954.941 980.588 953.812 987.521 952.815C991.147 952.317 994.269 951.828 996.887 951.35C999.628 950.851 1002.75 950.353 1006.24 949.723C1013.48 948.36 1020.72 946.791 1027.96 945.326C1030.45 944.813 1032.96 944.226 1035.57 943.699L1041.2 942.321C1043.44 941.822 1045.68 941.324 1047.94 940.694C1052.17 939.697 1056.54 938.583 1061.03 937.323L1064.53 936.458C1077.27 932.969 1089.45 929.334 1100.85 925.48L1101.61 925.348L1102.1 925.48C1111.42 929.301 1120.55 933.586 1129.45 938.319L1133.43 940.327L1129.24 941.793C1102.27 950.605 1074.88 958.06 1047.16 964.131L1039.69 965.758C1036.93 966.388 1034.31 966.857 1031.82 967.385L1029.44 967.883L1025.45 968.631C1024.08 968.88 1022.52 969.246 1021.2 969.51L1018.84 969.994C1014.21 970.873 1010.05 971.621 1006.22 972.368C1004.47 972.931 1002.66 973.314 1000.83 973.511ZM957.635 976.018H958.134C961.637 975.637 965.125 975.138 968.496 974.64H968.951C971.061 974.391 973.201 974.01 975.18 973.775C977.159 973.541 979.181 973.262 980.926 973.013L981.922 972.896C986.554 972.153 990.717 971.528 994.41 971.02C996.264 970.623 998.138 970.33 1000.02 970.14C1001.78 969.891 1003.64 969.525 1005.52 969.144C1009.26 968.528 1013.49 967.678 1018.13 966.769L1020.49 966.285C1021.86 966.036 1023.24 965.772 1024.74 965.406L1028.61 964.659L1030.98 964.145C1033.47 963.662 1036.1 963.046 1038.84 962.533L1046.17 960.906C1074.01 954.662 1100.1 947.715 1123.69 940.049C1116.45 936.297 1108.84 932.72 1101.35 929.686C1090.12 933.438 1078 937.176 1065.4 940.547L1062.46 941.295C1057.72 942.555 1053.11 943.801 1048.61 944.798C1046.37 945.296 1044.11 945.883 1041.87 946.41L1036.12 947.788C1033.5 948.418 1031.01 948.887 1028.52 949.415C1021.28 951.042 1013.86 952.537 1006.66 953.9C1003.18 954.53 1000.08 955.161 997.312 955.527C994.542 955.893 991.567 956.524 987.829 956.993C980.823 958.126 973.582 959.128 966.107 959.997L965.36 960.129C963.102 960.364 960.86 960.613 958.485 960.994L953.502 961.624C950.746 961.874 947.873 962.24 944.883 962.504C940.149 962.988 935.268 963.369 930.226 963.735L929.229 963.867C915.481 964.864 902.392 965.479 890.153 965.743C884.29 970.859 878.427 976.721 872.931 982.467C897.511 981.969 924.231 979.961 952.315 976.721L957.562 975.974L957.635 976.018Z" fill="white"/>
<path d="M851.939 1004.35L849.447 1001.59C853.947 997.608 859.18 991.994 864.676 986.131L867.798 982.76L870.539 985.383L867.432 988.667C861.803 994.618 856.571 1000.22 851.939 1004.35Z" fill="white"/>
<path d="M1078.03 913.766L1102.58 925.796L1100.93 929.153L1076.39 917.122L1078.03 913.766Z" fill="white"/>
<path d="M909.355 946.455L909.223 946.587C907.992 947.774 899.623 955.938 893.848 961.713L893.672 961.904L891.664 963.912L888.938 962.021L889.187 961.787L889.436 961.523C889.436 961.523 901.704 948.331 904.65 946.675L909.165 946.455H909.355Z" fill="white"/>
<path d="M910.863 946.426H909.162L904.648 946.631H900.06C898.595 946.631 897.129 946.543 895.78 946.484H890.943C890.738 946.499 890.533 946.499 890.328 946.484H889.331C881.217 946.066 873.141 945.086 865.161 943.553C863.696 943.26 862.318 942.937 860.925 942.615L859.21 941.882C857.554 941.442 855.927 940.973 854.403 940.416L854.036 940.328H853.904C851.62 939.629 849.379 938.797 847.191 937.837C849.61 937.426 851.97 937.089 854.286 936.84L854.637 940.328C855.737 940.211 856.748 940.211 857.935 940.094C860.861 939.861 863.798 939.812 866.73 939.947C871.853 940.943 877.024 941.677 882.222 942.146C884.421 942.351 886.62 942.512 888.935 942.659C891.251 942.805 893.435 942.893 895.751 942.967H895.868L896.293 942.879H897.129V943.025H898.756C900.778 943.025 902.801 943.142 904.736 943.142H907.858L907.785 943.011H907.858C908.342 943.89 908.869 944.74 909.324 945.62L909.866 946.514L910.863 946.426Z" fill="white"/>
<path d="M1079.31 910.149C1079.17 911.029 1079.04 911.923 1078.88 912.802C1078.69 913.902 1078.46 915.06 1078.21 916.188L1078.03 916.98V917.229L1077.03 917.566C1072.15 919.193 1067.37 920.629 1063.36 921.846C1058.96 923.136 1054.34 924.411 1049.36 925.686H1049.14C1045.33 926.683 1041.3 927.665 1037.06 928.618C1026.35 931.197 1016.41 933.161 1007.28 934.876C1003.42 935.609 999.438 936.342 994.762 937.133L992.241 937.588L991.142 937.778L987.991 938.306C986.202 938.584 984.253 938.863 982.23 939.141C971.677 940.856 961.959 942.205 952.593 943.26C942.978 944.359 933.539 945.18 924.656 945.767L921.373 945.957C919.087 946.074 916.771 946.162 914.44 946.236H909.823L909.266 945.341C908.753 944.462 908.24 943.612 907.8 942.747C906.936 941.281 906.13 939.728 905.382 938.218C905.089 937.661 904.825 937.119 904.561 936.547C904.297 935.975 904.034 935.448 903.77 934.832C903.139 933.469 902.582 932.121 902.069 930.772C901.806 930.083 901.542 929.394 901.293 928.705C901.043 928.017 900.794 927.24 900.545 926.507L900.017 924.953C899.358 922.755 898.728 920.556 898.171 918.167C898.024 917.581 897.892 916.965 897.746 916.349C897.775 916.244 897.775 916.132 897.746 916.027C897.614 915.397 897.482 914.781 897.35 914.121C897.218 913.462 897.145 913.081 897.057 912.538L896.793 910.897L896.295 907.599C896.295 907.364 896.295 907.13 896.221 906.895C895.267 898.315 895.548 889.643 897.057 881.143C899.245 868.532 904.059 856.522 911.186 845.892C912.286 844.177 913.517 842.521 914.763 840.879C919.096 835.298 924.009 830.193 929.42 825.65C939.587 817.361 951.389 811.312 964.055 807.9C966.005 807.372 967.969 806.918 969.918 806.537L974.462 805.76C990.296 803.447 1006.46 805.309 1021.35 811.163C1036.25 817.017 1049.35 826.659 1059.37 839.135C1059.9 839.78 1060.46 840.439 1060.93 841.099C1061.39 841.758 1061.88 842.359 1062.39 842.975C1062.9 843.591 1063.49 844.441 1063.97 845.174C1065.53 847.46 1066.99 849.81 1068.37 852.224C1072.59 859.83 1075.72 867.991 1077.66 876.467C1077.9 877.229 1078.13 877.933 1078.31 878.724C1078.57 879.735 1078.79 880.747 1078.95 881.773V881.963C1079.13 883.063 1079.31 884.162 1079.44 885.261C1079.57 886.067 1079.66 886.888 1079.75 887.709C1079.83 888.53 1079.88 889.336 1079.95 890.157C1080.02 890.978 1080.05 891.74 1080.1 892.575C1080.14 893.411 1080.17 894.041 1080.2 894.759V894.95C1080.36 900.033 1080.06 905.12 1079.31 910.149Z" fill="white"/>
</g>
</g>
<defs>
<clipPath id="clip0_694_1600">
<rect width="1185" height="1182" fill="white"/>
</clipPath>
</defs>
</svg>
